<svg width="898" height="905" viewBox="0 0 898 890" fill="none" xmlns="http://www.w3.org/2000/svg">
<g opacity="0.03" clip-path="url(#clip0_2_1172)">
<path d="M0 307.971C12.6665 317.637 25.6034 326.977 37.9092 337.072C48.0514 345.398 57.4498 354.625 67.9639 364.179L133.325 304.827L138.125 309.627L77.7567 371.266L141.743 439.733L135.905 445.569C108.566 429.796 94.2096 398.7 67.3328 382.566C53.8775 395.681 40.6251 409.212 26.6627 421.999C18.3348 429.559 8.91385 435.936 0 442.854V435.936C18.6616 417.527 37.6951 399.455 55.489 380.234C57.6189 377.981 54.7678 367.548 51.1729 364.078C34.7088 348.215 17.1628 333.489 0 318.347V307.971Z" fill="white"/>
<path d="M0 200.758C6.8178 205.614 14.5033 209.614 20.2844 215.484C43.0592 238.513 65.2368 262.138 85.0027 288.164C53.3704 264.764 26.0767 236.845 0 207.676V200.758Z" fill="white"/>
<path d="M0 401.348C0.552185 401.213 1.26214 401.246 1.62275 400.897C32.6804 371.277 32.6804 371.277 0 342.559V335.641L41.8647 365.847L0 411.724V401.348Z" fill="white"/>
<path d="M1.42306e-06 221.511C7.75314 230.254 15.078 239.448 23.3834 247.638C32.624 256.753 42.8789 264.842 52.4013 273.687C55.0044 276.098 56.4581 279.703 58.5993 282.632C60.7404 285.562 63.1745 288.48 62.6449 293.752C59.1853 289.144 56.2891 283.962 52.1646 280.064C39.6447 268.245 26.6176 256.967 13.8497 245.385C9.08289 241.036 4.58652 236.372 -0.0338058 231.865L1.42306e-06 221.511Z" fill="white"/>
<path d="M0 249.182L48.3895 291.443L43.6677 296.637L0 256.1V249.182Z" fill="white"/>
<path d="M0 269.935L25.1639 290.147L0 294.135V269.935Z" fill="white"/>
<path d="M139.94 280.537L12.1143 158.374C18.9546 156.458 24.3074 153.54 29.5476 153.732C62.6787 154.96 95.8098 156.537 128.862 159.016C132.795 159.309 139.387 165.652 139.466 169.302C140.244 207 139.94 244.732 139.94 280.537ZM33.6495 164.491L33.1311 168.547C38.0557 169.28 42.9578 170.463 47.8936 170.677C66.2735 171.443 84.6534 172.322 103.045 172.322C120.072 172.322 125.921 180.141 125.583 196.905C125.233 217.658 127.476 238.445 128.603 259.22H132.975C133.494 253.948 134.553 248.664 134.418 243.447C134.035 228.519 132.727 213.614 132.592 198.685C132.322 168.919 132.66 167.635 102.966 164.942C80.0105 162.869 56.7624 164.491 33.6495 164.491ZM108.747 238.952L116.748 238.028C115.812 222.255 115.362 206.403 113.547 190.709C113.164 187.385 107.913 182.202 104.701 182.033C87.5158 181.177 70.2628 181.628 48.9417 181.628C63.5915 195.519 77.2722 189.92 89.2737 189.098C103.36 188.117 107.71 193.03 107.237 206.268C106.854 217.14 108.183 228.057 108.747 238.952ZM71.108 201.209L100.712 227.516C98.751 214.83 97.6579 207.811 96.6437 201.209H71.108Z" fill="white"/>
<path d="M467.374 622.352L578.938 739.648C566.677 740.775 559.6 741.991 552.501 742.093C528.329 742.42 504.123 742.949 479.973 742.003C474.812 741.8 465.763 736.009 465.481 732.28C462.867 696.948 461.751 661.515 460.207 626.104L467.374 622.352ZM487.794 654.935C487.794 674.573 487.456 691.596 488.143 708.564C488.245 711.234 492.887 715.797 495.603 715.932C510.591 716.653 525.635 716.27 540.68 716.27L541.807 711.527L487.794 654.935ZM480.48 644.942H474.057V731.829H558.879C558.981 730.263 559.082 728.697 559.172 727.131C539.001 726.354 518.795 724.528 498.669 725.171C485.089 725.599 479.86 721.531 480.3 707.865C480.976 686.898 480.48 665.909 480.48 644.942Z" fill="white"/>
<path d="M898 660.929C888.985 679.541 882.223 693.433 873.659 711.065C865.196 696.035 859.189 685.388 852.518 673.559L831.186 708.338L809.538 667.182L792.702 709.893H846.726C846.726 710.738 846.726 711.583 846.635 712.428H775.64V711.234L788.927 708.665L764.349 660.94L898 660.929Z" fill="white"/>
<path d="M160.021 8.4837L286.539 140.933C264.001 140.933 246.455 140.865 228.932 140.933C210.507 141.012 192.059 141.699 173.713 141.08C169.093 140.922 160.709 136.81 160.663 134.387C159.807 92.9039 160.021 51.3754 160.021 8.4837ZM265.342 132.416L165.656 23.333C165.656 58.4057 165.498 91.8448 166.005 125.273C166.005 127.684 171.008 132.033 173.747 132.033C203.261 132.551 232.842 132.371 265.365 132.371L265.342 132.416Z" fill="white"/>
<path d="M742.723 121.859L639.882 10.4216C674.061 10.4216 705.896 10.1286 737.697 10.8947C740.706 10.9623 746.126 17.6547 746.07 21.2374C745.574 53.1555 744.098 85.0511 742.723 121.859ZM702.808 55.8482L702.143 55.206L731.296 93.8052L735.207 92.3856V17.1702L657.675 13.6438C657.202 15.4014 656.718 17.1589 656.244 18.9165L702.808 55.8482Z" fill="white"/>
<path d="M889.909 166.193C871.619 184.918 853.498 203.8 834.826 222.12C832.955 223.956 826.114 224.058 824.458 222.277C804.692 201.063 785.467 179.341 768.868 160.83H888.906C889.244 162.621 889.571 164.413 889.909 166.193ZM854.107 181.391L816.919 177.944L814.789 183.239L828.526 197.367C838.995 190.844 846.557 186.101 854.186 181.346L836.843 202.448L801.908 177.031L804.072 173.144L835.626 169.257C835.626 168.367 835.535 167.488 835.479 166.598H778.582C792.285 181.245 805.357 195.688 819.207 209.411C821.956 212.115 829.664 214.166 831.794 212.442C847.571 199.733 862.469 185.988 880.803 169.764L859.674 167.511L854.107 181.391Z" fill="white"/>
<path d="M195.429 241.825C175.933 241.667 157.238 221.151 157.587 200.319C157.914 181.098 176.057 163.883 196.217 163.658C215.499 163.444 231.907 180.434 231.715 200.42C231.456 228.035 219.195 242.028 195.429 241.825ZM199.463 210.819L206.224 190.404C197.671 194.911 191.394 196.117 189.681 199.609C187.968 203.102 188.926 211.473 191.653 213.276C197.22 216.96 205.605 220.509 211.25 218.83C216.896 217.151 225.585 207.304 224.424 204.037C220.457 193.063 215.003 179.498 205.886 174.271C193.637 167.252 178.345 171.679 169.498 184.782C161.125 197.176 163.019 210.087 172.676 221.297C181.523 231.55 192.341 235.854 203.317 232.564C194.843 225.612 183.81 220.351 179.528 211.743C176.643 205.918 181.489 194.224 186.075 187.239C191.518 178.946 201.243 178.338 208.196 186.416C215.612 195.035 213.549 202.933 199.463 210.819Z" fill="white"/>
<path d="M467.025 152.414C474.192 160.976 481.573 169.37 488.436 178.146C495.198 186.754 501.305 195.846 507.898 204.589C525.049 227.325 525.038 227.753 505.926 248.326C491.873 263.468 477.888 278.666 461.176 296.772V155.095L467.025 152.414ZM502.015 214.211L469.448 164.548L462.269 170.384C475.251 185.233 488.23 200.09 501.204 214.954C498.59 223.562 497.711 233.341 492.921 240.484C487.005 249.328 477.471 255.672 470.225 263.75C467.262 267.051 466.214 272.064 464.287 276.312L468.253 278.272C480.57 264.944 492.741 251.48 505.25 238.332C514.423 228.711 514.84 220.678 502.015 214.211ZM465.211 256.291L472.671 262.398C479.86 252.866 487.535 243.65 493.969 233.634C496.223 230.085 497.722 223.021 495.761 220.283C487.659 208.949 478.091 198.652 469.065 187.982L465.211 189.503V256.291Z" fill="white"/>
<path d="M512.834 380.088L501.103 395.117L479.387 378.274L461.357 392.549V357.149C481.754 367.098 481.754 367.098 506.748 351.606C517.229 364.923 528.013 364.822 539.733 351.753C541.919 349.33 550.044 350.108 554.169 352.068C559.634 354.659 563.86 359.864 568.819 364.134L589.903 349.995V399.725C582.691 387.783 577.507 379.22 572.357 370.658L566.835 374.905C563.612 377.159 559.747 378.792 557.268 381.665C548.534 391.726 540.601 395.5 532.25 381.203C526.188 370.838 519.043 376.528 512.248 380.719C516.564 371.108 517.882 362.568 503.841 358.76L484.515 374.229L498.578 387.569L512.834 380.088ZM562.418 370.185C547.959 349.003 544.477 349.003 529.208 370.049L544.579 386.746L562.418 370.185Z" fill="white"/>
<path d="M691.347 764.806C694.401 766.564 697.85 767.736 700.171 770.045C713.626 783.351 727.059 796.691 739.985 810.492C747.58 818.593 747.873 825.95 736.999 832.856C719.531 843.976 703.101 856.719 685.555 867.703C681.509 870.238 673.159 870.712 669.452 868.177C652.469 856.414 636.151 843.616 620.397 830.242C618.065 828.259 617.997 818.773 620.251 816.959C641.335 800.059 663.141 784.004 684.8 767.814C686.558 766.496 688.868 765.922 691.347 764.806ZM739.05 821.139L691.021 770.811L623.147 821.511C639.498 834.805 653.788 847.277 669.114 858.307C672.99 861.101 681.712 861.687 685.578 859.231C702.932 848.021 719.329 835.391 739.05 821.139Z" fill="white"/>
<path d="M190.2 522.148L158.748 550.201L153.35 549.356C153.35 519.962 153.102 490.545 153.801 461.162C153.857 458.706 160.213 454.402 163.729 454.402C187.022 453.794 210.338 454.086 238.217 454.086L189.569 522.812L190.2 522.148ZM198.708 488.01L220.931 468.688L219.004 462.401C202.1 462.401 185.106 462.074 168.191 462.717C165.408 462.829 160.517 467.144 160.449 469.623C159.841 491.57 160.1 513.563 160.1 535.51L167.109 536.929L183.517 510.104L198.708 488.01Z" fill="white"/>
<path d="M105.084 480.844C100.757 487.097 95.1562 492.246 96.1366 494.364C98.4806 499.468 103.27 504.662 108.352 506.836C111.125 508.019 118.179 504.211 120.376 500.786C126.755 490.883 119.79 473.341 108.307 468.992C94.9759 463.933 87.5045 471.572 82.7377 482.512C76.4157 497.057 83.0307 516.83 96.3733 525.223C115.722 537.38 129.899 529.617 137.46 502.69L142.103 504.358C139.173 512.526 138.542 523.702 132.75 528.141C125.109 534 112.466 538.619 103.619 536.67C73.6097 530.068 62.9379 488.923 85.431 467.944C91.0655 462.649 104.96 457.996 109.333 461.105C118.089 467.325 125.91 478.422 128.299 488.832C129.955 496.077 124.073 508.211 117.694 513.405C107.924 521.359 98.0524 514.464 91.6064 505.18C84.9577 495.626 86.062 485.374 96.1141 479.954C100.836 477.397 109.536 480.225 115.395 482.872C117.244 483.706 116.286 492.043 115.395 496.719C115.159 498.026 110.662 498.533 108.116 499.412C107.406 495.164 106.718 490.883 105.084 480.844Z" fill="white"/>
<path d="M540.916 520.086C540.116 513.743 540.42 510.092 539.147 507.118C534.042 495.221 538.854 490.646 550.473 488.123C554.766 487.199 560.682 481.363 561.122 477.228C563.173 457.985 564.604 456.103 591.469 454.695C583.75 459.449 579.434 461.534 575.839 464.497C573.067 466.75 568.695 470.975 569.326 472.947C575.772 493.148 561.527 495.919 546.416 498.86C547.385 505.113 549.695 510.87 548.669 515.917C547.745 520.356 542.933 527.533 540.071 527.42C524.362 526.823 519.787 534.18 521.331 548.41C521.601 550.922 519.776 553.671 518.694 557.006L493.834 554.235C489.428 567.642 492.166 588.361 467.509 579.675C464.929 586.232 462.698 591.876 460.094 598.478C454.144 576.847 456.398 573.467 476.051 571.146C478.733 570.83 483.264 567.642 483.252 565.805C483.061 544.917 494.521 541.154 513.499 547.497C512.879 528.401 517.781 515.467 540.916 520.086Z" fill="white"/>
<path d="M154.488 628.29L224.48 703.313C250.399 675.823 271.596 653.313 292.816 630.813L297.155 634.069C294.743 638.576 293.244 643.894 289.785 647.262C270.492 666.078 250.94 684.634 230.859 702.615C228.244 704.958 220.108 705.465 217.978 703.347C196.837 682.369 176.406 660.692 155.908 639.128C154.984 638.114 155.412 635.883 154.488 628.29Z" fill="white"/>
<path d="M770.355 456.768H891.565L893.537 461.207L829.18 517.934L767.65 460.621L770.355 456.768ZM832.572 489.159L817.403 461.77H776.091L829.405 510.937L882.37 464.519C873.726 463.9 868.791 463.393 863.855 463.235C858.22 463.066 852.473 463.235 850.332 463.235L832.572 489.159Z" fill="white"/>
<path d="M525.613 496.73C518.851 505.744 513.837 518.475 504.833 522.643C497.463 526.102 485.427 518.835 475.319 517.393C462.731 515.591 456.725 509.642 455.869 496.404C454.381 473.487 467.059 457.151 488.549 456.554C508.506 456.047 522.345 471.527 525.613 496.73ZM484.346 486.771L486.599 489.587C486.862 494.162 487.114 498.736 487.354 503.31C490.735 501.969 496.978 500.358 496.888 499.344C496.381 493.936 495.817 486.41 492.29 484.01C488.763 481.611 480.356 482.76 476.728 485.655C473.291 488.404 470.428 497.282 472.333 500.223C476.93 507.332 483.602 514.869 491.118 517.731C496.223 519.692 508.957 515.399 510.039 511.58C513.082 500.786 514.547 488.089 511.662 477.476C508.236 464.519 492.155 460.204 478.373 465.308C465.323 470.141 461.12 477.926 463.915 492.494C466.924 488.235 469.222 481.374 472.795 480.619C481.517 478.794 491.896 477.397 499.446 480.732C502.827 482.219 502.173 495.716 500.866 503.344C500.336 506.453 492.978 510.735 489.191 510.318C485.405 509.901 479.669 504.684 479.049 500.933C478.373 496.606 482.373 491.525 484.346 486.771Z" fill="white"/>
<path d="M367.643 496.854C373.739 460.677 382.484 454.83 425.295 458.075C415.153 469.871 406.972 480.112 398.024 489.621C371.914 517.427 373.435 528.75 343.335 491.041C334.207 479.616 324.313 468.801 316.616 454.12C331.063 456.058 345.6 457.5 359.856 460.384C362.346 460.891 364.555 467.144 365.276 471.076C366.595 478.264 366.707 485.655 367.643 496.854ZM412.719 464.632C374.461 466.761 371.305 470.502 379.374 502.228L412.719 464.632ZM361.208 503.096C361.107 463.719 356.7 458.92 329.091 466.547L361.208 503.096Z" fill="white"/>
<path d="M159.21 325.704C159.21 322.324 158.872 318.865 159.142 315.474C160.123 303.385 165.509 300.242 175.888 307.452C186.56 314.855 197.299 322.167 207.994 329.524L207.396 328.904C215.488 337.579 223.489 346.356 231.704 354.918C249.915 373.902 268.362 392.673 286.404 411.814C290.297 416.02 292.395 421.578 292.253 427.306L224.638 362.816L225.201 363.526L185.331 322.786C184.205 333.039 183.675 337.883 183.145 342.728L183.427 342.491C179.843 330.098 171.741 324.161 158.77 325.051L159.21 325.704Z" fill="white"/>
<path d="M315.061 52.6711V0L345.634 24.8652L374.494 1.39705V58.7775L347.922 29.2141L314.915 52.7049L315.061 52.6711Z" fill="white"/>
<path d="M887.937 346.288H767.865L767.763 340.655H816.592C808.546 333.073 804.309 329.096 799.407 324.487C788.205 331.033 776.035 344.553 767.109 319.722L781.207 330.109L798.798 317.953L817.302 330.943C827.963 319.034 838.882 319.677 845.047 326.437L880.116 324.825L880.724 330.143L891.182 322.595L893.244 324.679L881.22 338.199L865.444 326.561C855.177 336.058 843.897 342.187 833.304 324.972L817.291 339.483L888.286 343.314L887.937 346.288Z" fill="white"/>
<path d="M236.73 7.23312C254.073 6.41066 271.416 5.26147 288.77 5.13754C291.148 5.13754 295.678 10.23 295.611 12.8664C295.126 29.3155 293.627 45.7309 292.061 67.7795L235.073 13.2945L236.73 7.23312ZM287.035 52.8401C288.387 37.6866 289.469 25.7328 290.709 11.8749H261.409C295.96 7.68378 274.966 38.9822 287.035 52.8401Z" fill="white"/>
<path d="M893.898 614.725C851.447 624.549 808.918 623.592 766.343 614.894C808.816 608.089 851.346 609.148 893.898 614.725Z" fill="white"/>
<path d="M342.242 553.119L308.367 584.936C309.956 564.544 310.7 547.678 313.078 531.037C313.495 528.175 320.854 524.39 325.023 524.367C335.165 524.3 345.307 526.204 358.143 527.601C354.334 535.882 351.382 542.348 348.429 548.793L342.242 553.119Z" fill="white"/>
<path d="M312.278 156.684C361.31 194.348 394.238 247.56 440.317 288.085L434.536 293.651L308.198 160.638L312.278 156.684Z" fill="white"/>
<path d="M655.117 387.952L728.197 318.989L730.868 321.885L613.771 436.668C617.828 430.404 621.558 424.67 625.198 419.025C635.122 408.742 645.095 398.385 655.117 387.952Z" fill="white"/>
<path d="M292.185 755.861C277.445 785.041 277.445 785.041 255.865 767.769C247.909 772.659 239.479 782.022 231.974 781.289C224.187 780.568 217.324 770.113 210.247 764.085C178.153 788.274 175.798 788.083 160.021 757.573L182.987 777.56C186.515 774.439 189.817 772.163 192.33 769.211C202.167 757.629 211.983 748.932 225.754 764.637C227.591 766.722 232.335 767.623 235.366 767.082C254.332 763.657 273.242 759.657 292.185 755.861Z" fill="white"/>
<path d="M672.765 556.342C676.529 554.505 682.411 550.134 683.73 551.227C697.512 562.73 710.561 575.1 723.814 587.279L721.38 591.887H637.707L635.678 587.381L646.767 577.241C645.956 591.403 652.097 585.961 658.036 581.252C678.422 565.096 678.32 565.231 698.965 582.964C702.267 585.792 707.034 586.93 711.113 588.857L715.058 582.232L672.765 556.342Z" fill="white"/>
<path d="M760.9 468.857L824.897 530.293L889.424 476.789L893.537 481.149C877.456 496.302 861.984 512.188 845.08 526.406C825.99 542.506 825.292 542.011 807.363 523.657C790.673 506.577 774.389 489.125 757.925 471.831L760.9 468.857Z" fill="white"/>
<path d="M214.834 773.887L232.064 800.352C242.714 791.339 249.103 781.909 256.642 780.872C263.314 779.96 271.292 788.443 280.781 794.032L294.597 786.325C285.085 808.239 281.243 808.351 258.231 788.331C250.816 794.775 243.232 801.366 234.239 809.163L210.878 787.61C204.951 792.894 198.775 797.851 193.265 803.45C185.737 811.089 179.979 810.717 174.31 801.31C169.566 793.423 163.954 786.089 158.736 778.506L163.03 775.408L184.216 800.059L214.834 773.887Z" fill="white"/>
<path d="M159.131 679.823C168.507 689.219 177.319 699.28 187.382 707.888C229.596 743.941 215.724 744.312 257.048 708.451C269.557 697.59 281.693 686.312 296.625 672.871C296.625 679.541 297.324 681.885 296.524 682.628C274.357 702.502 252.214 722.433 229.506 741.687C226.52 744.234 218.519 745.529 216.254 743.535C194.967 724.799 174.434 705.229 153.688 685.884L159.131 679.823Z" fill="white"/>
<path d="M213.741 811.438C200.556 818.503 188.847 829.927 180.463 827.865C171.256 825.612 165.103 810.898 157.621 801.625L162.331 797.874L182.559 822.142C199.531 811.934 216.829 784.41 234.837 820.891L262.232 802.177C267.72 808.453 272.532 813.951 278.099 820.294L292.816 813.793C293.785 814.841 294.766 815.889 295.735 816.948C290.844 821.004 285.097 829.082 281.243 828.214C273.49 826.547 266.762 820.046 257.792 814.402C243.412 833.205 227.095 832 213.741 811.438Z" fill="white"/>
<path d="M738.689 430.01L679.391 390.633L734.283 340.824L738.689 342.728V430.01ZM689.567 389.079L732.626 416.253V349.094L689.567 389.079Z" fill="white"/>
<path d="M850.918 266.814C850.715 282.373 842.162 292.141 828.751 292.153C805.086 292.153 796.364 286.114 796.792 269.991C797.277 251.503 809.955 236.361 824.897 236.428C840.122 236.496 851.143 249.374 850.918 266.814ZM821.28 268.076C821.607 269.653 821.922 271.242 822.238 272.819C826.069 271.693 833.023 270.949 833.169 269.439C833.631 264.831 832.966 258.421 830.002 255.683C827.489 253.362 818.136 253.542 817.099 255.469C814.102 261.023 811.217 268.989 813.121 274.194C815.026 279.399 822.384 284.694 828.087 285.663C832.876 286.474 841.035 282.508 843.627 278.205C850.23 267.22 848.247 255.672 838.082 247.255C829.067 239.808 818.429 239.369 809.91 247.853C800.545 257.204 799.497 268.515 805.402 284.063C807.329 272.222 807.295 264.121 810.135 257.204C813.719 248.461 821.043 243.109 830.814 249.137C840.584 255.165 842.736 264.82 836.944 274.396C835.107 277.438 827.377 279.635 823.962 278.25C820.548 276.864 818.44 270.622 817.618 266.161C817.381 264.91 823.692 262.443 827.005 260.527L829.078 264.561L821.28 268.076Z" fill="white"/>
<path d="M814.079 130.827H840.212L840.584 127.841L813.144 123.335C814.451 121.194 814.992 119.538 815.544 119.538C844.844 119.11 844.844 119.121 844.934 89.8393C844.99 68.5907 844.934 47.3532 844.934 24.854L813.752 22.5331L813.82 19.0066L850.49 16.1111V142.488L813.91 134.601L814.079 130.827Z" fill="white"/>
<path d="M655.117 387.952C645.095 398.355 635.122 408.712 625.198 419.025C621.716 421.132 618.132 423.329 614.549 425.526C613.422 424.241 612.295 422.946 611.168 421.661C637.357 382.882 671.48 351.426 707.936 322.054L655.117 387.952Z" fill="white"/>
<path d="M189.569 522.767C203.092 509.022 216.614 495.367 229.991 481.498C237.395 473.803 244.427 465.725 251.628 457.838L256.394 462.063L159.131 577.252L152.775 572.892C156.911 566.594 160.754 560.082 165.261 554.066C173.364 543.261 181.883 532.772 190.211 522.148L189.569 522.767Z" fill="white"/>
<path d="M643.465 277.416L628.815 255.75L611.258 277.495L607.325 274.903C613.309 267.017 618.673 253.497 625.435 252.708C633.571 251.841 642.868 261.879 653.1 268.065C657.236 265.485 663.423 262.431 668.595 258.206C679.752 249.024 689.68 245.746 700.949 258.713C703.203 261.305 712.398 260.527 716.725 258.195C736.266 247.593 742.768 249.993 753.001 275.647C748.718 272.932 745.338 271.94 743.985 269.721C735.59 256.122 725.955 258.454 715.813 267.141C708.341 273.574 701.884 274.408 695.878 265.428C689.274 255.548 682.456 256.562 673.024 262.961C664.009 269.101 652.954 272.278 642.789 276.762L643.465 277.416Z" fill="white"/>
<path d="M222.001 386.882C228.3 395.692 234.307 404.75 241.001 413.268C246.996 420.907 253.757 427.914 260.158 435.271L255.977 439.474C251.357 435.271 246.399 431.407 242.184 426.833C216.874 399.365 191.856 371.627 166.478 344.226C160.37 337.636 153.282 331.946 146.645 325.839L150.487 321.446L159.187 325.704L158.748 325.051L202.528 363.47L222.001 386.882Z" fill="white"/>
<path d="M309.438 461.004L358.594 517.483C320.098 525.178 306.666 510.442 309.438 461.004Z" fill="white"/>
<path d="M489.935 152.921C495.355 158.881 501.069 164.615 506.129 170.868C517.398 184.726 528.779 198.494 539.034 213.061C542.1 217.422 544.59 226.818 542.235 229.646C523.618 251.92 503.773 273.18 484.3 294.744L479.928 291.082C482.757 287.499 485.405 283.759 488.436 280.345C502.184 264.854 515.583 249.024 530.03 234.152C537.581 226.424 536.071 221.004 530.03 213.704C517.139 198.246 504.844 182.281 492.437 166.384C490.098 163.078 487.928 159.656 485.934 156.132L489.935 152.921Z" fill="white"/>
<path d="M675.976 741.575V609.576C687.415 622.611 686.919 723.007 675.976 741.575Z" fill="white"/>
<path d="M284.556 89.5464C288.59 96.6969 292.617 103.832 296.636 110.953L292.917 113.792C258.411 78.0395 223.932 42.2683 189.478 6.47826L192.217 3.0983L211.487 14.8493L228.165 29.3606L282.155 86.8199L284.556 89.5464Z" fill="white"/>
<path d="M613.557 175.296L641.211 194.551L660.808 173.505C666.589 178.101 672.213 181.932 677.047 186.563C686.603 195.7 694.627 198.359 703.112 184.771C704.622 182.326 714.01 182.349 718.033 184.49C724.4 187.869 729.302 193.976 739.726 203.327C743.208 196.117 746.577 189.109 749.958 182.101L755.097 187.002L736.931 209.884L712.139 188.951C702.819 193.582 693.714 202.02 686.017 200.894C677.126 199.587 669.485 189.841 661.507 183.915C636.568 204.837 633.977 204.51 613.557 175.296Z" fill="white"/>
<path d="M769.623 914.629C771.421 914.629 772.879 872.459 772.879 820.44C772.879 768.422 771.421 726.252 769.623 726.252C767.824 726.252 766.366 768.422 766.366 820.44C766.366 872.459 767.824 914.629 769.623 914.629Z" fill="white"/>
<path d="M773.86 652.546C772.068 647.905 769.217 644.097 769.645 640.683C770.096 637.032 773.634 633.776 775.832 630.351C779.032 632.751 782.875 634.644 785.253 637.686C787.777 640.908 788.893 645.234 790.741 649.324L805.109 629.935C807.543 635.095 809.988 640.255 813.527 647.736C814.913 646.767 818.429 645.28 820.514 642.654C823.523 638.869 825.506 634.272 827.929 630.013C830.419 634.79 832.898 639.556 837.338 648.04L888.173 651.206L888.083 652.558L773.86 652.546Z" fill="white"/>
<path d="M288.658 652.547C268.373 677.333 248.145 702.221 227.005 728.145L156.066 662.315L159.784 657.988L226.272 717.836L291.126 655.127C290.326 654.27 289.492 653.459 288.658 652.547Z" fill="white"/>
<path d="M463.385 88.3409C479.432 88.3409 495.479 88.4423 511.527 88.3409C521.286 88.2508 533.366 92.1152 532.036 70.8102C546.9 100.205 572.684 82.2457 591.999 95.0332H463.531L463.385 88.3409Z" fill="white"/>
<path d="M106.977 293.527L3.00885 185.504L8.47436 180.265L112.398 288.221L106.977 293.527Z" fill="white"/>
<path d="M632.59 733.451V608.787H637.797V733.451H632.59Z" fill="white"/>
<path d="M590.805 616.989H467.746C467.851 614.586 467.956 612.186 468.062 609.79C509.092 610.714 550.405 605.34 590.805 616.989Z" fill="white"/>
<path d="M502.511 787.283L474.282 784.59C474.282 784.004 474.35 783.464 474.395 782.833H590.5C590.5 783.802 590.5 784.759 590.557 785.728H528.441C526.267 798.403 525.376 808.126 522.243 817.072C521.748 818.514 506.839 817.905 506.14 815.765C503.345 807.292 503.559 797.84 502.511 787.283Z" fill="white"/>
<path d="M207.994 329.524L191.09 308.117L192.972 306.089L248.596 344.305L262.806 357.825C272.858 371.075 282.907 384.332 292.951 397.596L290.416 400.492C287.035 397.652 283.519 394.96 280.274 391.952C260.755 373.643 241.452 355.11 221.674 337.05C217.719 333.433 212.141 331.597 207.317 328.938L207.994 329.524Z" fill="white"/>
<path d="M223.466 616.572C272.87 616.572 312.92 615.2 312.92 613.508C312.92 611.815 272.87 610.443 223.466 610.443C174.062 610.443 134.012 611.815 134.012 613.508C134.012 615.2 174.062 616.572 223.466 616.572Z" fill="white"/>
<path d="M642.766 276.762L652.571 288.198L683.606 265.766C690.457 273.36 696.452 280.007 702.312 286.485C733.516 267.175 735.894 267.749 747.321 298.879L727.995 276.346C700.058 292.592 700.058 292.592 683.076 274.092C679.977 275.625 675.729 276.537 673.261 279.14C662.149 290.823 651.297 295.713 635.261 286.125C630.032 282.993 619.62 288.536 612.193 289.989L629.863 269.383C634.878 272.312 639.16 274.813 643.443 277.337L642.766 276.762Z" fill="white"/>
<path d="M378.979 780.602V883.071H373.66V761.618L377.717 758.711C380.771 762.001 386.44 765.246 386.496 768.58C387.127 805.67 386.89 842.782 383.239 879.883V780.737L378.979 780.602Z" fill="white"/>
<path d="M272.994 498.533L290.866 487.188L294.416 490.568C262.863 526.012 231.328 561.46 199.812 596.912L195.113 593.228C204.549 580.88 213.977 568.524 223.398 556.161L224.728 555.463C241.001 536.257 257.27 517.051 273.535 497.846L272.994 498.533Z" fill="white"/>
<path d="M531.214 284.536C542.765 270.938 553.414 256.37 566.148 243.977C577.541 232.868 578.025 224.542 567.917 212.047C555.228 196.364 545.03 178.687 533.749 161.866L538.415 158.419C543.215 164.66 548.23 170.812 552.783 177.189C561.077 188.895 568.39 201.344 577.417 212.431C586.015 222.976 585.091 232.057 576.786 241.543C563.263 257.001 549.691 272.425 536.071 287.815L531.214 284.536Z" fill="white"/>
<path d="M507.796 286.17C521.511 270.307 535.045 254.286 549.008 238.648C556.963 229.725 559.037 222.469 549.098 212.735C538.956 202.764 530.808 190.72 522.221 179.251C518.281 174.267 516.384 167.972 516.913 161.641C532.183 180.355 547.712 198.877 562.429 217.974C564.559 220.734 564.683 227.99 562.508 230.626C546.202 250.906 529.118 270.6 512.27 290.463L507.796 286.17Z" fill="white"/>
<path d="M709.806 159.129L733.471 179.408L751.648 160.357L754.905 162.79L734.486 188.467L708.127 166.463L693.241 190.911C681.126 180.828 673.632 170.237 664.234 168.142C656.763 166.474 646.981 175.183 636.456 180.107C631.125 175.521 624.127 169.674 617.298 163.613C615.349 161.866 613.974 159.489 614.594 154.757L639.476 173.505L661.766 156.256L690.108 180.265L709.806 159.129Z" fill="white"/>
<path d="M788.836 7.60491V140.359C785.535 140.359 784.227 140.764 783.439 140.291C777.804 136.911 772.305 133.328 766.76 129.824C771.133 125.881 776.756 122.648 779.506 117.792C781.827 113.702 781.095 107.731 781.23 102.571C781.917 76.7364 782.357 50.8797 783.055 25.0342C783.213 19.063 783.788 13.0917 784.182 7.12045L788.836 7.60491Z" fill="white"/>
<path d="M314.915 52.7049C337.712 72.6466 360.769 92.318 383.205 112.677C393.111 121.69 401.754 132.044 410.961 141.778L407.58 145.857C403.478 142.713 399.129 139.852 395.32 136.393C370.663 114.04 345.961 91.7997 321.845 68.8498C317.991 65.1882 317.338 58.1804 315.084 52.6936C315.027 52.6888 314.97 52.6926 314.915 52.7049Z" fill="white"/>
<path d="M590.748 67.2274H467.307C467.307 65.9318 467.397 64.6248 467.431 63.3292H590.883L590.748 67.2274Z" fill="white"/>
<path d="M590.883 312.342H462.833C462.833 310.72 462.833 309.109 462.833 307.486H590.917L590.883 312.342Z" fill="white"/>
<path d="M133.088 412.817C120.388 401.844 107.169 391.411 95.4717 379.457C93.0827 377.012 94.6829 366.703 97.9059 363.504C109.062 352.406 121.751 342.841 133.854 332.701L138.768 337.737L100.644 371.063L139.218 406.057L133.088 412.817Z" fill="white"/>
<path d="M466.54 325.051H583.626C583.626 326.572 583.626 328.082 583.626 329.557H466.54V325.051Z" fill="white"/>
<path d="M462.258 434.269H595.233L595.166 439.102H462.483L462.258 434.269Z" fill="white"/>
<path d="M779.821 507.434C814.327 550.246 813.414 542.36 780.858 578.469C754.601 552.669 754.195 536.884 779.821 507.434ZM779.517 517.28C763.064 544.422 763.909 552.77 783.653 566.504C803.385 544.095 803.385 544.095 779.562 517.28H779.517Z" fill="white"/>
<path d="M888.692 383.716L767.989 378.387L768.191 375.818H889.413L888.692 383.716Z" fill="white"/>
<path d="M284.556 89.5464L282.155 86.7523L228.165 29.293L211.487 14.7817L208.884 4.32634L213.121 1.12665C234.908 23.0739 256.657 45.0323 278.369 67.0021C283.158 71.8692 288.41 76.7026 291.678 82.5386C296.14 90.5491 292.996 93.3883 284.556 89.5464Z" fill="white"/>
<path d="M769.375 734.578H893.515C893.425 736.133 893.323 737.688 893.233 739.242H768.552C768.8 737.676 769.082 736.122 769.375 734.578Z" fill="white"/>
<path d="M314.937 887.961V758.531L319.253 758.463V887.803L314.937 887.961Z" fill="white"/>
<path d="M586.41 561.434C586.41 587.561 585.395 589.06 567.41 588.891C554.417 588.778 540.567 591.707 541.919 569.737C543.835 538.664 542.686 539.318 571.816 538.101C592.416 537.245 585.61 551.193 586.41 561.434ZM579.299 547.148C547.588 543.419 543.238 548.951 551.69 580.835C583.818 583.606 584.922 582.255 579.299 547.148Z" fill="white"/>
<path d="M14.4019 732.415H119.881V736.831H14.4244L14.4019 732.415Z" fill="white"/>
<path d="M708.319 444.792L674.128 415.499L637.042 443.778L632.444 438.268C645.764 426.236 659.016 414.113 672.551 402.339C673.587 401.438 677.498 402.182 678.76 403.466C690.536 415.397 702.019 427.61 713.593 439.744L708.319 444.792Z" fill="white"/>
<path d="M437.353 438.617H318.419L318.284 434.933H437.241L437.353 438.617Z" fill="white"/>
<path d="M432.406 465.747C434.052 469.24 434.897 470.254 434.919 471.223C436.452 531.24 440.633 519.139 378.653 522.136C397.19 502.702 414.24 484.81 432.406 465.747ZM396.435 513.067C429.578 519.286 435.595 512.751 427.831 479.977L396.435 513.067Z" fill="white"/>
<path d="M419.481 290.147L314.408 186.281L316.661 184.028L420.777 288.806L419.481 290.147Z" fill="white"/>
<path d="M186.605 284.559L274.357 198.46C276.194 200.319 278.02 202.189 279.845 204.093L191.406 289.46L186.605 284.559Z" fill="white"/>
<path d="M224.728 555.497L223.398 556.195L184.745 592.327L181.872 590.074L284.578 472.023L287.463 474.006L272.994 498.555L273.535 497.902C257.277 517.093 241.008 536.291 224.728 555.497Z" fill="white"/>
<path d="M112.961 25.3046H9.66888V20.798H113.142L112.961 25.3046Z" fill="white"/>
<path d="M137.922 613.035V721.498H132.153V612.64L137.922 613.035Z" fill="white"/>
<path d="M431.606 587.415L380.321 532.209C399.748 533.437 415.108 534 430.344 535.724C433.037 536.028 437.105 540.985 437.275 543.982C438.03 557.389 437.601 570.864 437.601 584.316L431.606 587.415ZM432.587 541.729L397.652 539.081C410.105 553.232 419.65 564.07 431.46 577.523C432.102 570.053 432.519 567.248 432.587 564.442C432.665 557.615 432.598 550.787 432.598 541.729H432.587Z" fill="white"/>
<path d="M669.26 496.854C682.58 484.337 689.544 477.701 696.633 471.178C703.721 464.654 710.663 458.638 717.683 452.374L721.763 456.712C712.376 465.792 703.033 474.93 693.59 483.943C671.187 505.349 677.588 507.084 653.472 482.816C644.975 474.254 637.222 464.947 631.351 453.748L669.26 496.854Z" fill="white"/>
<path d="M222.001 386.882L202.551 363.47C205.605 347.888 189.028 350.164 183.393 342.491L183.111 342.728C190.82 345.984 203.193 347.471 205.278 352.868C209.616 364.202 216.062 364.641 225.168 363.504L224.604 362.794C225.979 369.418 227.358 376.047 228.74 382.679L233.653 379.986C238.105 386.656 242.06 393.732 247.176 399.838C250.325 403.667 254.488 406.532 259.189 408.108C270.154 411.319 272.013 417.774 269.658 425.008C250.692 416.242 243.931 392.92 222.001 386.882Z" fill="white"/>
<path d="M355.405 887.319V759.849H359.608V887.611L355.405 887.319Z" fill="white"/>
<path d="M441.196 56.6819L413.023 26.037L444.937 3.37996V54.8793L441.196 56.6819Z" fill="white"/>
<path d="M593.363 856.426H464.467C464.467 854.657 464.467 852.877 464.467 851.097C507.346 846.432 550.337 852.28 593.25 851.649C593.261 853.249 593.306 854.837 593.363 856.426Z" fill="white"/>
<path d="M463.16 415.983H590.827L590.714 420.298H463.069C463.081 418.856 463.16 417.425 463.16 415.983Z" fill="white"/>
<path d="M594.095 830.749H464.501C464.501 829.183 464.501 827.617 464.444 826.051H593.926L594.095 830.749Z" fill="white"/>
<path d="M798.111 140.922V10.9173H802.224V140.922H798.111Z" fill="white"/>
<path d="M342.242 553.119L348.429 548.793L368.218 533.606C368.218 552.545 368.511 566.853 367.925 581.117C367.834 583.55 364.037 587.753 361.794 587.877C347.888 588.507 333.926 588.192 318.205 588.192L342.242 553.119ZM328.539 581.815C365.028 582.942 369.592 577.365 358.053 548.804L328.539 581.815Z" fill="white"/>
<path d="M136.717 809.456L6.11912 803.45L5.98389 797.468C11.4156 797.209 16.8586 796.589 22.2677 796.781C30.7533 797.074 39.1714 798.212 47.6908 798.392C50.9814 798.459 54.3734 796.003 57.5963 796.251C82.8503 798.223 108.082 800.532 133.302 802.887C134.643 803.011 135.871 804.386 137.156 805.14L136.717 809.456Z" fill="white"/>
<path d="M164.765 867.658H290.1V872.165C248.202 874.216 206.348 881.066 164.371 872.165C164.529 870.61 164.641 869.134 164.765 867.658Z" fill="white"/>
<path d="M315.354 105.556L350.965 139.547L312.458 144.133L309.483 108.283L315.354 105.556Z" fill="white"/>
<path d="M873.907 515.872C897.155 547.317 897.155 547.317 869.737 580.182C837.293 558.584 838.42 536.738 873.907 515.872ZM869.14 569.264C889.593 544.016 889.695 540.05 870.267 524.57C846.759 547.441 846.692 550.077 869.14 569.264Z" fill="white"/>
<path d="M664.211 734.578C643.217 719.83 643.206 719.706 658.228 698.525C645.122 688.306 650.61 678.595 661.608 669.108C649.843 658.833 643.488 648.141 658.96 636.266C653.517 627.388 643.42 618.105 663.794 611.063C650.553 623.637 677.509 640.356 654.092 648.445C668.257 669.401 668.257 669.401 656.988 683.744L661.834 685.05C660.042 693.455 657.98 701.815 656.594 710.287C655.94 714.253 655.669 718.737 656.909 722.422C658.419 726.782 661.71 730.533 664.211 734.578Z" fill="white"/>
<path d="M607.618 590.366V459.01L610.638 459.078V590.22L607.618 590.366Z" fill="white"/>
<path d="M782.075 888.749V758.373H786.357V888.49L782.075 888.749Z" fill="white"/>
<path d="M104.498 717.892H13.9286C25.502 705.848 84.1688 704.587 104.498 717.892Z" fill="white"/>
<path d="M8.64339 831.707H136.119L136.063 835.008H8.85751L8.64339 831.707Z" fill="white"/>
<path d="M465.008 885.82H591.289V890H465.03C465.019 888.603 465.019 887.206 465.008 885.82Z" fill="white"/>
<path d="M407.49 886.519V760.333H411.322V886.519H407.49Z" fill="white"/>
<path d="M867.348 888.659V757.753L871.529 757.821V888.513L867.348 888.659Z" fill="white"/>
<path d="M235.862 436.24H151.141V431.576H235.806C235.794 433.131 235.828 434.686 235.862 436.24Z" fill="white"/>
<path d="M289.954 843.424H163.74L163.684 839.627H289.74C289.818 840.9 289.886 842.162 289.954 843.424Z" fill="white"/>
<path d="M167.154 855.13H289.435L289.289 858.206H166.997L167.154 855.13Z" fill="white"/>
<path d="M481.641 101.016C494.995 99.2356 503.21 102.525 501.475 117.104C500.1 128.371 505.779 143.491 484.143 142.274C462.292 141.046 461.604 140.854 460.478 121.194C459.317 103.866 466.833 98.3794 481.641 101.016ZM497.587 115.268C492.538 112.463 487.76 108.114 482.396 107.167C472.716 105.455 466.281 108.643 466.461 120.867C466.619 132.258 471.262 135.412 481.934 135.604C494.398 135.829 496.122 129.036 497.587 115.268Z" fill="white"/>
<path d="M134.767 11.6609H5.34155C24.1947 2.14065 104.69 2.11812 134.767 11.6609Z" fill="white"/>
<path d="M607.629 401.089L692.249 310.055L696.757 314.167L612.441 405.776C610.826 404.228 609.222 402.666 607.629 401.089Z" fill="white"/>
<path d="M468.05 873.709H591.481V876.751H468.017L468.05 873.709Z" fill="white"/>
<path d="M614.301 740.414V612.731L617.681 612.629V740.572L614.301 740.414Z" fill="white"/>
<path d="M262.806 357.78L248.596 344.26C242.533 336.655 245.046 321.299 228.717 322.403C227.76 322.471 226.25 314.381 224.909 309.83L249.599 319.001L248.991 318.336C246.737 330.357 249.915 338.323 263.697 339.585C266.548 339.844 269.805 342.446 271.698 344.891C276.814 351.448 281.288 358.501 288.004 368.224L262.806 357.78Z" fill="white"/>
<path d="M619.958 138.376V18.556H623.654V138.545L619.958 138.376Z" fill="white"/>
<path d="M292.005 886.8H164.405L164.517 883.364H292.117C292.084 884.513 292.038 885.662 292.005 886.8Z" fill="white"/>
<path d="M438.435 408.389H341.949V403.883H438.706L438.435 408.389Z" fill="white"/>
<path d="M572.966 105.004C585.914 106.131 598.885 105.004 596.856 124.281C595.391 137.891 593.475 146.578 575.963 146.24C555.138 145.823 557.335 133.486 557.211 119.797C557.087 107.393 561.956 102.785 572.966 105.004ZM565.404 114.795C560.896 137.756 564.041 140.922 587.424 137.17C594.028 114.198 590.861 110.975 565.404 114.795Z" fill="white"/>
<path d="M889.007 312.703H768.766C768.766 311.576 768.766 310.528 768.845 309.435H889.131C889.131 310.528 889.041 311.61 889.007 312.703Z" fill="white"/>
<path d="M137.37 793.919C125.38 792.522 113.401 790.122 101.388 789.964C82.7827 789.717 64.2 791.271 45.5271 791.463C40.1968 791.463 34.7651 789.784 29.5025 788.387C23.0904 786.686 16.8022 784.466 10.0971 782.359C13.8272 776.523 19.5293 773.898 29.6039 780.985C34.6186 784.511 42.6197 784.083 49.3361 784.816C56.0525 785.548 62.5885 785.199 69.1922 785.751C74.7253 786.224 80.2021 787.914 85.7352 788.004C103.078 788.308 120.433 788.117 137.776 788.117L137.37 793.919Z" fill="white"/>
<path d="M620.082 584.621V467.899L623.203 468.057V584.733L620.082 584.621Z" fill="white"/>
<path d="M315.016 204.251L391.387 284.052L386.609 288.559L310.069 209.107L315.016 204.251Z" fill="white"/>
<path d="M597.701 762.395H467.138C480.875 752.74 565.134 753.235 597.701 762.395Z" fill="white"/>
<path d="M302.846 391.692L394.125 308.32L396.909 311.046L302.248 390.949L302.846 391.692Z" fill="white"/>
<path d="M860.451 12.1566V140.099H856.958V11.8749L860.451 12.1566Z" fill="white"/>
<path d="M259.967 570.56L237.237 574.593V594.006C226.52 575.112 227.76 571.732 243.908 565.839C247.447 564.555 252.687 560.364 252.54 557.795C251.571 541.898 260.282 537.673 274.65 539.115C275.879 528.829 273.366 516.03 287.587 517.393C284.98 527.285 282.388 537.162 279.812 547.024L280.476 546.326C258.637 545.312 258.637 545.312 259.2 571.112L259.967 570.56Z" fill="white"/>
<path d="M509.228 126.027C509.701 113.251 508.157 103.055 524.925 103.494C540.567 103.855 546.923 108.801 545.807 124.63C545.007 136.021 544.376 145.248 529.016 144.369C515.212 143.524 506.162 139.795 509.228 126.027ZM535.687 138.049L541.018 133.182C539.091 126.14 538.606 118.039 534.606 112.496C532.724 109.905 521.533 110.006 519.066 112.834C515.685 116.733 513.6 127.053 516.147 129.734C520.632 134.489 528.96 135.491 535.687 138.049Z" fill="white"/>
<path d="M25.4569 599.109C18.3123 589.138 10.5028 582.66 11.641 578.83C13.6469 572.216 20.4421 563.991 26.5612 562.696C31.0689 561.749 42.8113 571.709 42.1915 575.224C40.9068 582.48 33.4805 588.462 25.4569 599.109Z" fill="white"/>
<path d="M385.223 55.6229V3.96582C412.449 19.6263 412.956 31.5463 385.223 55.6229Z" fill="white"/>
<path d="M141.145 27.6255V142.443H137.224V27.7044L141.145 27.6255Z" fill="white"/>
<path d="M467.802 769.504H594.411V773.853H466.946C467.228 772.344 467.509 770.901 467.802 769.504Z" fill="white"/>
<path d="M333.903 419.115H437.928L437.782 422.495H333.768L333.903 419.115Z" fill="white"/>
<path d="M508.552 637.517L590.816 643.68C590.692 646.08 590.557 648.479 590.433 650.89L508.033 646.913L508.552 637.517Z" fill="white"/>
<path d="M492.11 628.064H589.802C589.802 629.552 589.802 631.039 589.723 632.571H492.301L492.11 628.064Z" fill="white"/>
<path d="M658.306 250.286C650.587 240.597 642.282 234.693 642.654 229.398C643.026 224.103 651.669 215.416 657.112 215.123C662.104 214.853 671.086 223.213 671.875 228.643C672.618 233.893 665.012 240.281 658.306 250.286Z" fill="white"/>
<path d="M373.852 138.488L389.854 141.688L389.775 144.324H370.753C370.099 139.232 369.468 134.308 368.736 128.675C357.647 126.422 342.524 127.616 348.226 107.9C337.205 104.61 320.549 110.581 323.558 90.4252L311.162 91.2139L310.148 88.1944L327.164 80.6459C328.877 87.5072 330.184 92.8025 331.604 98.5033L351.325 100.757L353.714 118.986C361.828 124.844 383.543 115.606 373.852 138.488Z" fill="white"/>
<path d="M844.246 868.087V888.468H836.662C836.662 865.732 836.133 842.985 836.82 820.271C837.485 797.93 839.389 775.611 840.821 752.244C843.007 760.514 844.697 766.812 846.32 773.11C847.007 775.814 849.002 779.633 847.909 781.098C840.719 790.742 847.199 805.411 844.066 810.143C833.135 826.671 846.759 843.018 840.111 858.409C839.108 860.718 843.142 865.169 844.855 868.684L844.246 868.087Z" fill="white"/>
<path d="M736.018 879.139C737.934 867.873 739.613 858.059 741.303 848.224L747.298 848.888C746.014 861.113 748.347 881.46 742.791 883.95C729.11 890.056 711.823 887.803 696.002 888.851C695.866 886.417 695.742 883.995 695.607 881.573L736.018 879.139Z" fill="white"/>
<path d="M190.448 730.376C179.877 736.595 173.6 743.208 167.831 742.769C162.669 742.397 158.06 734.274 153.181 729.576C158.691 724.145 163.537 715.729 169.927 714.321C174.299 713.408 180.767 722.376 190.448 730.376Z" fill="white"/>
<path d="M313.957 240.45C333.317 246.219 341.375 265.147 353.996 278.621C355.867 280.627 354.255 285.888 354.255 289.651L349.5 291.003L309.753 244.484L313.957 240.45Z" fill="white"/>
<path d="M867.382 424.174L855.82 436.849C858.288 423.926 869.782 411.792 856.947 397.416L871.597 409.46L883.914 390.994L889.965 393.506C877.862 408.975 871.101 424.478 888.647 440.826L883.576 441.952L867.382 424.174Z" fill="white"/>
<path d="M442.627 751.061L385.403 686.549L390.395 682.042L448.848 745.428L442.627 751.061Z" fill="white"/>
<path d="M470.248 862.78H584.629V865.416H470.237C470.237 864.538 470.248 863.659 470.248 862.78Z" fill="white"/>
<path d="M636.828 34.746V137.091H633.638V34.8023L636.828 34.746Z" fill="white"/>
<path d="M614.053 798.685C614.639 786.832 611.044 767.961 616.701 764.581C628.241 757.686 644.772 759.128 659.242 757.134C659.648 759.74 660.049 762.343 660.448 764.941C655.681 765.629 650.722 767.51 646.17 766.8C626.798 763.815 620.251 773.053 621.378 790.9C621.547 793.513 620.6 796.195 620.161 798.786L614.053 798.685Z" fill="white"/>
<path d="M425.025 588.924C383.329 597.757 372.297 586.671 377.819 546.179C392.547 559.507 408.042 573.534 425.025 588.924ZM382.71 552.173C381.526 584.846 386.609 589.262 415.153 582.131L382.71 552.173Z" fill="white"/>
<path d="M145.912 414.406H218.812C212.986 422.642 168.383 424.185 145.912 414.406Z" fill="white"/>
<path d="M654.543 889.425C642.147 888.468 626.223 891.746 618.29 885.279C611.348 879.646 613.354 863.017 614.549 849.294C616.994 875.207 631.711 884.434 656.988 881.021C656.177 883.815 655.354 886.676 654.543 889.425Z" fill="white"/>
<path d="M447.169 612.46L391.105 662.348C401.721 641.787 426.163 628.616 442.717 608.168L447.169 612.46Z" fill="white"/>
<path d="M296.501 729.035C287.959 735.13 282.313 742.273 277.524 741.732C272.735 741.192 264.26 732.077 265.128 728.562C266.593 722.455 273.974 717.768 278.887 712.484L296.501 729.035Z" fill="white"/>
<path d="M225.618 289.381C214.856 269.022 215.476 268.087 242.094 263.468C241.474 247.627 248.495 238.952 266.165 243.053C270.605 233.769 267.72 216.396 283.981 223.213C280.307 229.792 278.031 237.6 272.881 242.118C267.246 247.041 258.975 248.878 249.419 253.193C249.013 256.133 248.157 262.206 247.165 269.642L226.937 272.222C226.509 277.236 226.103 282.79 225.618 289.381Z" fill="white"/>
<path d="M82.0277 698.976H14.6498L14.4695 694.255H81.8812L82.0277 698.976Z" fill="white"/>
<path d="M121.706 138.578V41.2468H125.087V138.95L121.706 138.578Z" fill="white"/>
<path d="M179.787 625.721H270.627L270.695 629.642H179.81C179.798 628.335 179.787 627.028 179.787 625.721Z" fill="white"/>
<path d="M891.058 723.312H773.803L773.871 720.754H891.182C891.148 721.644 891.103 722.5 891.058 723.312Z" fill="white"/>
<path d="M609.444 373.125L669.824 307.982L674.658 312.331L614.932 377.891L609.444 373.125Z" fill="white"/>
<path d="M793.344 436.015L781.759 419.735L768.991 437.142C779.584 420.918 779.46 406.429 766.85 391.016L784.329 407.004L798.009 388.977L802.607 391.163C796.499 405.55 777.68 418.619 802.404 436.229L793.344 436.015Z" fill="white"/>
<path d="M9.13924 37.4387H102.03L101.94 40.4581H9.13924V37.4387Z" fill="white"/>
<path d="M373.717 369.959H437.883L437.737 377.913L373.649 374.939L373.717 369.959Z" fill="white"/>
<path d="M120.579 613.361V702.164H114.945C112.762 672.605 112.71 642.928 114.787 613.361H120.579Z" fill="white"/>
<path d="M633.21 570.481V482.343L637.042 482.422V570.977L633.21 570.481Z" fill="white"/>
<path d="M279.812 547.058L296.501 541.672L284.105 562.932L284.522 562.437L249.588 595.752L245.227 592.462L259.877 570.56L259.11 571.146C266.21 562.884 273.302 554.621 280.386 546.359L279.812 547.058Z" fill="white"/>
<path d="M715.08 735.93C717.695 694.071 720.324 652.22 722.969 610.376L727.093 610.59L719.689 736.178L715.08 735.93Z" fill="white"/>
<path d="M439.664 396.402L360.78 391.726C360.881 389.473 360.994 387.22 361.095 384.966L439.979 389.631L439.664 396.402Z" fill="white"/>
<path d="M262.018 150.465C268.621 158.565 275.777 163.984 274.853 166.891C272.791 173.302 266.706 178.417 262.254 184.061C257.589 180.163 248.731 175.792 249.137 172.479C249.881 166.103 255.808 160.323 262.018 150.465Z" fill="white"/>
<path d="M840.945 442.775L828.549 423.915L815.51 441.141C829.033 423.825 823.523 407.24 809.977 390.723L815.183 390.104L829.247 410.384L843.897 393.664C830.374 409.539 834.172 425.424 845.43 441.569L840.945 442.775Z" fill="white"/>
<path d="M135.026 821.33H16.2275L16.3064 818.976H135.116L135.026 821.33Z" fill="white"/>
<path d="M551.329 782.912C557.854 792.792 564.379 798.313 563.725 802.684C562.79 808.532 556.265 813.489 552.129 818.841C547.486 814.762 538.978 810.616 539.068 806.65C539.17 800.363 545.052 794.201 551.329 782.912Z" fill="white"/>
<path d="M649.798 141.575V52.4119L652.548 52.1979V141.384L649.798 141.575Z" fill="white"/>
<path d="M354.819 69.9765H439.247L439.145 72.8382H354.74L354.819 69.9765Z" fill="white"/>
<path d="M445.185 765.899V879.466H442.323V765.189L445.185 765.899Z" fill="white"/>
<path d="M111.846 55.206V137.238L109.423 137.114V55.206H111.846Z" fill="white"/>
<path d="M604.947 805.478C595.56 811.743 589.351 818.672 586.004 817.489C580.527 815.562 575.163 808.903 573.304 803.101C572.515 800.623 581.023 791.699 584.652 792.071C590.264 792.646 595.312 798.685 604.947 805.478Z" fill="white"/>
<path d="M709.784 206.009C716.106 215.585 722.36 220.869 721.864 225.41C721.278 230.739 714.798 235.403 710.888 240.36C706.166 236.225 697.895 232.327 697.613 227.911C697.264 222.424 703.529 216.532 709.784 206.009Z" fill="white"/>
<path d="M366.989 686.233C350.379 704.41 333.76 722.579 317.135 740.741L312.548 736.606L361.896 681.4L366.989 686.233Z" fill="white"/>
<path d="M718.168 609.711C715.914 650.601 713.634 691.487 711.328 732.37L707.812 732.178C709.908 691.356 712.007 650.541 714.111 609.734L718.168 609.711Z" fill="white"/>
<path d="M361.603 672.207L312.3 615.153L317.788 610.421L366.471 667.666L361.603 672.207Z" fill="white"/>
<path d="M814.924 556.567C813.865 567.27 813.797 578.277 810.822 588.417C810.27 590.299 797.874 588.688 787.957 588.688L810.383 555.44L814.924 556.567Z" fill="white"/>
<path d="M836.336 553.998L856.451 589.386C831.772 599.65 831.231 588.868 836.336 553.998Z" fill="white"/>
<path d="M418.433 667.542C419.683 672.725 419.357 679.282 422.478 682.831C430.209 691.619 439.517 699.032 448.183 707.009L443.675 712.327C437.725 707.065 431.809 701.781 425.825 696.554C418.433 690.075 410.995 683.653 402.983 675.756C412.753 680.262 405.236 656.681 418.759 667.869L418.433 667.542Z" fill="white"/>
<path d="M739.5 797.671C748.516 766.338 724.174 769.302 707.654 764.243C708.51 762.147 709.371 760.052 710.234 757.956C721.898 759.748 736.029 758.272 744.357 764.513C749.688 768.513 746.442 783.926 747.051 794.223L739.5 797.671Z" fill="white"/>
<path d="M249.599 319.046L247.672 310.776L251.12 307.013L297.865 349.195L294.123 353.859L249.047 318.381L249.599 319.046Z" fill="white"/>
<path d="M188.566 269.867C181.703 276.03 176.609 283.545 173.544 282.79C168.338 281.483 161.148 275.185 160.911 270.735C160.675 266.285 167.763 259.705 172.868 258.139C175.944 257.204 181.432 264.223 188.566 269.867Z" fill="white"/>
<path d="M335.053 328.983C355.529 324.476 355.529 324.476 358.808 312.77C364.679 328.96 363.552 330.47 341.904 333.873C342.885 349.172 333.757 355.38 318.904 355.02C317.935 361.385 317.101 366.827 315.997 374.026C309.562 354.479 311.433 351.753 333.881 346.345C334.455 340.587 335.075 334.458 335.695 328.318L335.053 328.983Z" fill="white"/>
<path d="M525.996 654.586L591.357 658.135L591.289 660.805H525.928L525.996 654.586Z" fill="white"/>
<path d="M80.3035 56.2651H9.83791L9.98441 54.2484H80.4613L80.3035 56.2651Z" fill="white"/>
<path d="M665.271 137.531V64.039L669.542 63.9263V137.452L665.271 137.531Z" fill="white"/>
<path d="M540.443 674.212H590.974L590.872 678.527H540.398L540.443 674.212Z" fill="white"/>
<path d="M8.56451 65.729H66.127V69.3005H8.58705L8.56451 65.729Z" fill="white"/>
<path d="M686.378 520.875H748.268C748.268 522.441 748.211 524.007 748.177 525.561H686.367C686.367 524.007 686.378 522.441 686.378 520.875Z" fill="white"/>
<path d="M442.301 85.851H372.049C372.049 84.7243 372.049 83.6878 372.128 82.6062H442.47L442.301 85.851Z" fill="white"/>
<path d="M290.326 251.176L247.503 287.578L242.995 282.463L285.232 245.284L290.326 251.176Z" fill="white"/>
<path d="M292.793 296.535L261.736 288.885L290.585 266.87C291.419 278.047 292.016 285.967 292.793 296.535Z" fill="white"/>
<path d="M408.189 723.154C376.895 754.148 367.226 753.416 346.277 719.019C365.603 742.138 385.887 747.873 408.189 723.154Z" fill="white"/>
<path d="M94.2885 683.991V617.744H97.5452V683.8L94.2885 683.991Z" fill="white"/>
<path d="M82.4559 82.1668V140.516L76.8214 140.313L80.0105 82.0316L82.4559 82.1668Z" fill="white"/>
<path d="M195.079 643.804H255.166V648.096H194.707L195.079 643.804Z" fill="white"/>
<path d="M329.982 290.294C323.141 290.294 311.613 292.547 310.373 289.854C307.241 283.218 308.751 274.396 308.401 266.442L313.878 264.504L331.559 285.28C331.03 286.947 330.511 288.626 329.982 290.294Z" fill="white"/>
<path d="M594.309 241.498L557.031 294.451L552.591 291.341L589.294 238.13L594.309 241.498Z" fill="white"/>
<path d="M440.013 353.364H396.232C396.142 352.023 396.052 350.682 395.973 349.341H439.495L440.013 353.364Z" fill="white"/>
<path d="M56.492 662.033H12.982V657.988H56.4469L56.492 662.033Z" fill="white"/>
<path d="M652.39 308.512L608.644 346.468L609.331 347.494L648.908 305.808L652.39 308.512Z" fill="white"/>
<path d="M391.86 877.663V765.11H394.204V877.325L391.86 877.663Z" fill="white"/>
<path d="M698.751 505.462H744.29L744.211 509.428H698.684L698.751 505.462Z" fill="white"/>
<path d="M872.228 23.6597C882.595 30.4197 889.131 38.2386 877.242 52.2204C874.651 55.2849 877.986 63.7235 879.237 69.5596C880.364 74.7535 882.359 79.7558 880.24 85.9862C878.685 81.4796 878.336 75.8463 875.338 72.7931C866.379 63.6447 866.988 56.6256 874.572 46.1703C878.009 41.4721 873.242 30.8816 872.228 23.6597Z" fill="white"/>
<path d="M562.204 159.207L593.07 206.178L587.942 209.659L556.997 163.466L562.204 159.207Z" fill="white"/>
<path d="M376.838 93.5122H436.114V97.0274H377.109L376.838 93.5122Z" fill="white"/>
<path d="M159.672 401.889H212.986V405.347H159.638L159.672 401.889Z" fill="white"/>
<path d="M13.9061 675.372H66.42V680.104H13.7821L13.9061 675.372Z" fill="white"/>
<path d="M133.561 354.242V385.237L111.316 372.28L133.561 354.242Z" fill="white"/>
<path d="M680.721 138.454V88.0592H684.811V138.759L680.721 138.454Z" fill="white"/>
<path d="M383.566 720.596L396.875 714.298L398.858 716.754C391.725 723.154 384.58 729.553 376.478 736.798L354.559 713.566L356.701 710.873C361.264 715.008 365.907 719.087 370.404 723.267C376.692 729.204 381.301 728.562 384.096 720.022L383.566 720.596Z" fill="white"/>
<path d="M335.672 328.374L309.968 346.592L311.804 348.08L343.583 308.895L346.615 310.866L335.053 328.983L335.672 328.374Z" fill="white"/>
<path d="M153.406 390.036H196.95L196.815 396.526L153.147 394.498L153.406 390.036Z" fill="white"/>
<path d="M648.818 545.627V499.108L651.692 498.984V545.526L648.818 545.627Z" fill="white"/>
<path d="M709.761 487.841H745.157L745.394 491.367H710.054C709.953 490.173 709.863 488.968 709.761 487.841Z" fill="white"/>
<path d="M78.354 617.001V658.687L74.9733 658.777V617.147L78.354 617.001Z" fill="white"/>
<path d="M500.01 11.075C499.393 24.2568 498.77 37.4387 498.139 50.6205L493.71 50.4403V10.8497L500.01 11.075Z" fill="white"/>
<path d="M394.97 106.131H437.635C437.635 107.257 437.635 108.452 437.635 109.612H394.813L394.97 106.131Z" fill="white"/>
<path d="M66.6905 98.4357V138.804H63.8507V98.3681L66.6905 98.4357Z" fill="white"/>
<path d="M696.43 138.331L698.188 100.926L702.357 101.027V138.736L696.43 138.331Z" fill="white"/>
<path d="M210.101 661.098H241.654L224.48 679.203L210.101 661.098Z" fill="white"/>
<path d="M288.218 324.825L270.312 314.122C281.04 310.123 292.038 305.515 292.455 319.496L288.218 324.825Z" fill="white"/>
<path d="M284.15 562.932C286.55 565.772 291.306 570.819 291.002 571.123C282.933 579.81 274.335 588.023 265.827 596.304L261.939 592.496L284.556 562.471L284.15 562.932Z" fill="white"/>
<path d="M418.748 667.813C418.669 664.005 417.058 657.954 418.748 656.783C426.321 651.589 434.863 647.769 443.056 643.499L446.132 648.243L418.433 667.542L418.748 667.813Z" fill="white"/>
<path d="M11.0888 458.886H48.119L47.8035 465.398L10.9423 462.536L11.0888 458.886Z" fill="white"/>
<path d="M651.894 455.067L689.161 461.353C681.07 464.497 675.075 469.015 669.857 468.237C664.64 467.46 660.121 461.432 651.894 455.067Z" fill="white"/>
<path d="M444.002 335.968H415.221C415.221 334.706 415.221 333.444 415.221 332.183H444.002C444.002 333.489 444.002 334.706 444.002 335.968Z" fill="white"/>
<path d="M573.597 51.8261V15.7731H577.349V52.1753L573.597 51.8261Z" fill="white"/>
<path d="M591.909 693.444L553.2 690.841L553.605 685.017L592.427 686.932L591.909 693.444Z" fill="white"/>
<path d="M8.84624 500.538L45.0764 502.668L44.8961 506.904H8.64339L8.84624 500.538Z" fill="white"/>
<path d="M42.045 643.883H13.8722L13.8046 640.108H41.9774L42.045 643.883Z" fill="white"/>
<path d="M550.225 15.345L546.664 50.8571L540.759 50.26C541.863 38.5804 542.964 26.897 544.06 15.2098L550.225 15.345Z" fill="white"/>
<path d="M531.957 14.7817V49.922H528.363V14.8718L531.957 14.7817Z" fill="white"/>
<path d="M480.367 44.5817V13.2382H483.951V44.5704L480.367 44.5817Z" fill="white"/>
<path d="M872.701 131.604L884.071 143.998L881.818 146.589L867.72 135.198C868.058 123.932 889.943 120.203 873.58 106.334C893.763 115.054 881.006 123.188 872.701 131.604Z" fill="white"/>
<path d="M745.642 561.299L712.398 557.694C712.59 555.801 712.77 553.919 712.962 552.06L746.352 554.911L745.642 561.299Z" fill="white"/>
<path d="M384.096 720.044L360.014 705.815L363.237 700.981L376.759 711.121L394.587 701.567L383.589 720.596L384.096 720.044Z" fill="white"/>
<path d="M15.0217 845.903V879.916L12.6665 880.119V846.286L15.0217 845.903Z" fill="white"/>
<path d="M93.7025 133.982V64.7037H96.1028V134.072L93.7025 133.982Z" fill="white"/>
<path d="M11.6072 489.148H45.9666L46.0906 492.257H11.9114L11.6072 489.148Z" fill="white"/>
<path d="M685.296 445.479C676.427 434.145 667.265 432.793 657.63 444.825L655.174 439.057C660.481 435.733 665.812 429.74 671.074 429.796C677.058 429.796 682.986 435.316 688.936 438.437L685.296 445.479Z" fill="white"/>
<path d="M483.883 803.586L478.08 808.701C476.953 807.191 475.274 805.805 474.925 804.126C474.71 803.101 476.615 800.544 477.438 800.6C479.196 800.724 480.875 802.087 483.883 803.586Z" fill="white"/>
<path d="M198.708 488.01L183.517 510.081L171.121 520.582L166.456 519.511C167.301 504.099 165.329 487.582 170.58 473.893C172.372 469.262 192.679 471.797 206.844 470.907L198.708 488.01Z" fill="white"/>
<path d="M228.165 29.3493L282.155 86.8087L228.165 29.3493Z" fill="black"/>
<path d="M224.728 555.497C241.001 536.291 257.27 517.085 273.535 497.879C257.277 517.085 241.008 536.291 224.728 555.497Z" fill="black"/>
<path d="M501.779 679.451L523.63 704.496L521.759 709.138C514.355 708.417 502.962 710.265 500.449 706.389C495.941 699.472 496.877 689.084 495.536 680.15L501.779 679.451Z" fill="white"/>
<path d="M178.209 47.1279L249.43 122.997C223.815 122.997 202.303 123.256 180.813 122.67C178.232 122.602 173.645 118.163 173.578 115.572C173.003 93.3433 173.251 71.0918 173.251 48.8404L178.209 47.1279ZM178.942 55.0821C178.942 75.3619 178.863 90.8308 179.01 106.277C179.01 109.038 179.922 111.787 180.362 114.288C209.154 120.597 213.369 119.606 224.097 103.641L209.391 88.1156L186.447 106.841L181.939 101.726L204.85 83.8118L178.942 55.0821Z" fill="white"/>
<path d="M702.808 55.8482C701.354 50.4515 698.526 45.0098 698.706 39.6582C699.101 27.9861 707.473 20.8994 717.773 23.0288C723.87 24.2906 731.556 33.1687 732.694 39.6695C734.564 50.4177 727.059 57.7748 715.351 58.0114C710.967 58.0903 706.538 56.1975 702.132 55.206L702.808 55.8482ZM734.362 39.692C725.155 34.6221 719.791 29.2254 715.396 29.9239C711.001 30.6224 707.361 37.3373 703.405 41.4158C707.778 44.9197 712.038 51.0149 716.534 51.1839C721.03 51.3529 725.729 45.6069 734.339 39.692H734.362Z" fill="white"/>
<path d="M492.538 224.114L478.621 236.507C475.24 232.586 469.166 228.564 469.313 224.779C469.482 220.588 475.353 216.622 478.745 212.554L492.538 224.114Z" fill="white"/>
<path d="M723.859 820.778C708.702 832.045 695.799 842.252 682.05 851.198C678.997 853.192 671.762 852.212 668.528 849.812C658.025 842.072 648.491 833.025 635.487 821.804C652.086 809.05 666.849 796.905 682.659 786.314C685.409 784.478 693.849 787.824 697.41 791.17C706.11 799.361 713.491 808.937 723.859 820.778ZM645.392 820.069C677.61 853.012 673.497 857.992 714.472 818.683C707.823 811.067 701.771 802.628 694.108 796.071C690.818 793.254 682.636 791.97 679.335 794.111C667.446 801.783 656.695 811.191 645.392 820.069Z" fill="white"/>
<path d="M726.507 365.092V403.218L701.411 388.493L726.507 365.092Z" fill="white"/>
<path d="M564.773 547.148C571.095 555.643 577.169 560.758 576.189 563.09C574.104 568.273 568.537 572.103 564.39 576.419C560.919 573.039 554.518 569.535 554.665 566.335C554.901 561.288 559.544 556.443 564.773 547.148Z" fill="white"/>
</g>
<defs>
<clipPath id="clip0_2_1172">
<rect width="898" height="890" fill="white"/>
</clipPath>
</defs>
</svg>
