<svg width="913" height="905" viewBox="0 0 913 905" fill="none" xmlns="http://www.w3.org/2000/svg">
<g opacity="0.03" clip-path="url(#clip0_2_1432)">
<path d="M0 313.161C12.878 322.991 26.031 332.488 38.5424 342.753C48.854 351.22 58.4095 360.602 69.0991 370.317L135.552 309.965L140.432 314.845L79.0556 377.523L144.11 447.144L138.175 453.079C110.38 437.04 95.7833 405.42 68.4575 389.014C54.7775 402.35 41.3037 416.109 27.108 429.112C18.6411 436.799 9.06275 443.283 0 450.318V443.283C18.9733 424.564 38.3248 406.187 56.4159 386.643C58.5813 384.351 55.6826 373.743 52.0277 370.214C35.2886 354.084 17.4495 339.11 0 323.713V313.161Z" fill="white"/>
<path d="M0 204.142C6.93168 209.08 14.7456 213.147 20.6232 219.116C43.7784 242.532 66.3265 266.557 86.4226 293.021C54.2619 269.226 26.5123 240.837 0 211.176V204.142Z" fill="white"/>
<path d="M0 408.112C0.561409 407.975 1.28322 408.009 1.64986 407.654C33.2262 377.535 33.2262 377.535 0 348.332V341.298L42.564 372.013L0 418.663V408.112Z" fill="white"/>
<path d="M9.18657e-06 225.245C7.88265 234.135 15.3299 243.483 23.774 251.812C33.169 261.08 43.5951 269.306 53.2766 278.299C55.9232 280.751 57.4012 284.417 59.5781 287.396C61.755 290.374 64.2298 293.342 63.6913 298.703C60.1739 294.018 57.2294 288.748 53.036 284.784C40.3069 272.766 27.0622 261.298 14.0811 249.521C9.23461 245.099 4.66314 240.356 -0.0343628 235.773L9.18657e-06 225.245Z" fill="white"/>
<path d="M0 253.382L49.1978 296.355L44.3971 301.636L0 260.416V253.382Z" fill="white"/>
<path d="M0 274.484L25.5842 295.037L0 299.093V274.484Z" fill="white"/>
<path d="M142.277 285.265L12.3167 161.043C19.2712 159.095 24.7135 156.128 30.0411 156.323C63.7257 157.572 97.4102 159.176 131.015 161.696C135.013 161.994 141.716 168.444 141.796 172.156C142.586 210.489 142.277 248.856 142.277 285.265ZM34.2116 167.264L33.6846 171.388C38.6914 172.133 43.6754 173.336 48.6937 173.553C67.3806 174.332 86.0675 175.226 104.766 175.226C122.078 175.226 128.024 183.177 127.68 200.224C127.325 221.327 129.605 242.464 130.751 263.589H135.196C135.724 258.228 136.8 252.855 136.663 247.55C136.273 232.371 134.944 217.214 134.807 202.034C134.532 171.766 134.876 170.46 104.686 167.722C81.347 165.614 57.7106 167.264 34.2116 167.264ZM110.563 242.979L118.698 242.04C117.747 226.001 117.289 209.882 115.444 193.923C115.054 190.543 109.715 185.273 106.45 185.101C88.9776 184.231 71.4365 184.689 49.7592 184.689C64.6537 198.815 78.5629 193.121 90.765 192.285C105.087 191.288 109.509 196.283 109.028 209.744C108.638 220.8 109.99 231.901 110.563 242.979ZM72.2958 204.6L102.394 231.351C100.401 218.451 99.2892 211.314 98.2581 204.6H72.2958Z" fill="white"/>
<path d="M475.181 632.841L588.609 752.114C576.143 753.26 568.948 754.497 561.73 754.6C537.154 754.932 512.543 755.471 487.99 754.508C482.743 754.302 473.543 748.414 473.256 744.622C470.598 708.694 469.464 672.664 467.894 636.656L475.181 632.841ZM495.942 665.973C495.942 685.942 495.598 703.252 496.297 720.506C496.4 723.221 501.121 727.861 503.882 727.998C519.12 728.731 534.416 728.342 549.711 728.342L550.857 723.519L495.942 665.973ZM488.506 655.811H481.975V744.163H568.215C568.318 742.571 568.421 740.978 568.513 739.386C548.004 738.595 527.461 736.74 506.998 737.393C493.192 737.828 487.876 733.692 488.323 719.795C489.01 698.475 488.506 677.132 488.506 655.811Z" fill="white"/>
<path d="M913 672.068C903.834 690.994 896.96 705.12 888.252 723.049C879.648 707.766 873.541 696.94 866.758 684.911L845.07 720.277L823.06 678.426L805.943 721.858H860.869C860.869 722.717 860.869 723.576 860.778 724.435H788.596V723.221L802.105 720.609L777.116 672.079L913 672.068Z" fill="white"/>
<path d="M162.694 8.62668L291.325 143.308C268.411 143.308 250.572 143.24 232.756 143.308C214.023 143.389 195.267 144.087 176.615 143.457C171.917 143.297 163.393 139.115 163.347 136.652C162.476 94.4696 162.694 52.2413 162.694 8.62668ZM269.774 134.647L168.423 23.7262C168.423 59.3901 168.262 93.3927 168.778 127.384C168.778 129.836 173.865 134.258 176.649 134.258C206.656 134.785 236.731 134.601 269.797 134.601L269.774 134.647Z" fill="white"/>
<path d="M755.13 123.913L650.57 10.5972C685.32 10.5972 717.687 10.2993 750.02 11.0784C753.079 11.1471 758.59 17.9522 758.532 21.5954C758.028 54.0514 756.527 86.4845 755.13 123.913ZM714.548 56.7895L713.872 56.1365L743.512 95.3862L747.488 93.9426V17.4596L668.661 13.8737C668.18 15.6609 667.687 17.4481 667.206 19.2353L714.548 56.7895Z" fill="white"/>
<path d="M904.774 168.994C886.178 188.034 867.755 207.235 848.77 225.863C846.868 227.731 839.914 227.834 838.23 226.024C818.133 204.451 798.587 182.363 781.711 163.54H903.754C904.098 165.362 904.43 167.184 904.774 168.994ZM868.374 184.448L830.565 180.943L828.399 186.327L842.366 200.694C853.009 194.06 860.697 189.237 868.454 184.403L850.821 205.86L815.303 180.015L817.503 176.062L849.584 172.11C849.584 171.205 849.492 170.311 849.435 169.406H791.587C805.519 184.299 818.809 198.987 832.89 212.941C835.686 215.69 843.523 217.775 845.688 216.022C861.729 203.099 876.875 189.123 895.516 172.625L874.034 170.334L868.374 184.448Z" fill="white"/>
<path d="M198.693 245.901C178.872 245.74 159.864 224.878 160.219 203.695C160.552 184.151 178.998 166.645 199.495 166.416C219.098 166.198 235.78 183.475 235.586 203.798C235.322 231.878 222.856 246.107 198.693 245.901ZM202.795 214.373L209.669 193.614C200.973 198.196 194.591 199.422 192.85 202.973C191.108 206.525 192.082 215.037 194.855 216.87C200.515 220.616 209.039 224.225 214.779 222.518C220.519 220.811 229.353 210.798 228.173 207.476C224.14 196.317 218.594 182.524 209.325 177.208C196.871 170.071 181.324 174.573 172.33 187.897C163.817 200.499 165.742 213.628 175.561 225.027C184.555 235.452 195.554 239.829 206.713 236.483C198.097 229.415 186.88 224.065 182.527 215.312C179.594 209.389 184.52 197.497 189.183 190.394C194.717 181.962 204.605 181.344 211.674 189.558C219.213 198.322 217.116 206.353 202.795 214.373Z" fill="white"/>
<path d="M474.826 154.982C482.113 163.689 489.617 172.224 496.595 181.149C503.469 189.902 509.679 199.147 516.382 208.037C533.82 231.156 533.808 231.592 514.377 252.511C500.089 267.908 485.871 283.363 468.88 301.774V157.709L474.826 154.982ZM510.401 217.821L477.289 167.321L469.991 173.255C483.19 188.355 496.385 203.462 509.576 218.577C506.918 227.33 506.024 237.274 501.155 244.537C495.14 253.531 485.447 259.981 478.08 268.195C475.067 271.552 474.001 276.65 472.042 280.969L476.075 282.962C488.598 269.409 500.972 255.719 513.689 242.349C523.016 232.565 523.439 224.397 510.401 217.821ZM472.981 260.611L480.566 266.82C487.876 257.128 495.678 247.757 502.22 237.572C504.512 233.963 506.036 226.78 504.042 223.996C495.804 212.471 486.077 202 476.9 191.15L472.981 192.697V260.611Z" fill="white"/>
<path d="M521.4 386.494L509.473 401.777L487.395 384.649L469.063 399.165V363.169C489.801 373.285 489.801 373.285 515.213 357.532C525.868 371.073 536.833 370.97 548.749 357.681C550.971 355.218 559.232 356.008 563.426 358.002C568.982 360.637 573.279 365.93 578.32 370.272L599.757 355.894V406.462C592.424 394.319 587.154 385.612 581.918 376.905L576.304 381.224C573.027 383.515 569.097 385.176 566.576 388.098C557.697 398.328 549.631 402.166 541.141 387.628C534.977 377.088 527.713 382.874 520.804 387.135C525.192 377.363 526.533 368.679 512.257 364.807L492.608 380.537L506.907 394.101L521.4 386.494ZM571.812 376.424C557.113 354.886 553.572 354.886 538.048 376.286L553.675 393.265L571.812 376.424Z" fill="white"/>
<path d="M702.896 777.696C706 779.483 709.506 780.675 711.867 783.023C725.547 796.554 739.204 810.118 752.345 824.152C760.068 832.389 760.366 839.87 749.309 846.893C731.55 858.201 714.846 871.158 697.006 882.328C692.893 884.905 684.403 885.387 680.634 882.809C663.368 870.848 646.778 857.834 630.76 844.235C628.389 842.219 628.32 832.573 630.611 830.728C652.048 813.543 674.218 797.218 696.239 780.755C698.026 779.415 700.375 778.83 702.896 777.696ZM751.394 834.978L702.563 783.803L633.556 835.356C650.18 848.875 664.708 861.557 680.29 872.773C684.232 875.614 693.1 876.21 697.029 873.713C714.674 862.313 731.344 849.471 751.394 834.978Z" fill="white"/>
<path d="M193.377 530.948L161.399 559.474L155.911 558.615C155.911 528.725 155.659 498.813 156.37 468.934C156.427 466.437 162.889 462.06 166.464 462.06C190.146 461.442 213.851 461.74 242.196 461.74L192.735 531.624L193.377 530.948ZM202.027 496.235L224.621 476.587L222.662 470.194C205.476 470.194 188.198 469.862 171.001 470.515C168.171 470.63 163.198 475.018 163.129 477.538C162.511 499.855 162.774 522.218 162.774 544.535L169.901 545.979L186.583 518.701L202.027 496.235Z" fill="white"/>
<path d="M106.84 488.949C102.44 495.307 96.7456 500.543 97.7424 502.696C100.126 507.886 104.995 513.167 110.162 515.379C112.981 516.581 120.153 512.709 122.387 509.226C128.872 499.156 121.791 481.319 110.116 476.896C96.5623 471.752 88.9661 479.52 84.1197 490.644C77.6921 505.434 84.4176 525.54 97.983 534.075C117.655 546.437 132.069 538.543 139.756 511.163L144.477 512.858C141.498 521.164 140.856 532.529 134.967 537.043C127.199 543 114.344 547.697 105.35 545.715C74.8392 539.002 63.9892 497.163 86.858 475.831C92.5866 470.446 106.714 465.715 111.159 468.877C120.061 475.201 128.013 486.485 130.442 497.071C132.126 504.438 126.145 516.776 119.66 522.058C109.727 530.146 99.6902 523.135 93.1366 513.694C86.3768 503.979 87.4996 493.554 97.7195 488.044C102.52 485.443 111.365 488.318 117.323 491.011C119.202 491.859 118.228 500.336 117.323 505.091C117.082 506.42 112.511 506.935 109.922 507.829C109.2 503.51 108.501 499.156 106.84 488.949Z" fill="white"/>
<path d="M549.952 528.851C549.138 522.401 549.448 518.689 548.153 515.665C542.963 503.567 547.855 498.916 559.668 496.349C564.033 495.41 570.048 489.476 570.495 485.271C572.58 465.703 574.035 463.79 601.349 462.358C593.501 467.193 589.113 469.312 585.458 472.325C582.639 474.617 578.194 478.913 578.836 480.918C585.389 501.459 570.907 504.277 555.543 507.267C556.528 513.626 558.877 519.48 557.834 524.612C556.895 529.126 552.003 536.424 549.092 536.309C533.121 535.702 528.469 543.183 530.039 557.653C530.314 560.208 528.458 563.003 527.358 566.394L502.083 563.576C497.603 577.209 500.387 598.277 475.319 589.444C472.695 596.112 470.426 601.852 467.78 608.565C461.73 586.569 464.022 583.132 484.003 580.772C486.73 580.451 491.336 577.209 491.325 575.341C491.13 554.101 502.782 550.275 522.076 556.725C521.446 537.306 526.43 524.154 549.952 528.851Z" fill="white"/>
<path d="M157.068 638.879L228.23 715.167C254.582 687.213 276.133 664.324 297.707 641.445L302.118 644.756C299.666 649.339 298.143 654.746 294.625 658.171C275.01 677.304 255.132 696.172 234.715 714.457C232.057 716.84 223.784 717.355 221.619 715.202C200.125 693.87 179.353 671.828 158.512 649.9C157.573 648.869 158.008 646.6 157.068 638.879Z" fill="white"/>
<path d="M783.223 464.466H906.458L908.463 468.98L843.03 526.663L780.473 468.384L783.223 464.466ZM846.479 497.403L831.057 469.553H789.055L843.259 519.549L897.109 472.348C888.321 471.718 883.303 471.203 878.284 471.042C872.556 470.87 866.712 471.042 864.536 471.042L846.479 497.403Z" fill="white"/>
<path d="M534.393 505.102C527.518 514.267 522.42 527.213 513.265 531.452C505.772 534.969 493.536 527.58 483.259 526.113C470.461 524.28 464.354 518.231 463.483 504.77C461.971 481.468 474.86 464.856 496.709 464.249C517 463.733 531.07 479.474 534.393 505.102ZM492.436 494.975L494.727 497.839C494.995 502.49 495.251 507.141 495.495 511.793C498.932 510.429 505.28 508.791 505.188 507.76C504.672 502.261 504.099 494.608 500.513 492.168C496.927 489.728 488.38 490.896 484.691 493.841C481.196 496.636 478.286 505.664 480.222 508.654C484.897 515.883 491.68 523.547 499.322 526.457C504.512 528.45 517.459 524.085 518.559 520.202C521.652 509.226 523.142 496.315 520.208 485.523C516.725 472.348 500.376 467.96 486.363 473.15C473.096 478.065 468.822 485.981 471.664 500.795C474.723 496.464 477.06 489.487 480.692 488.719C489.56 486.864 500.112 485.443 507.789 488.834C511.226 490.346 510.561 504.071 509.232 511.827C508.694 514.989 501.212 519.343 497.363 518.919C493.513 518.495 487.681 513.19 487.051 509.375C486.363 504.976 490.431 499.809 492.436 494.975Z" fill="white"/>
<path d="M373.784 505.228C379.982 468.442 388.873 462.496 432.399 465.795C422.088 477.79 413.77 488.204 404.673 497.873C378.126 526.148 379.673 537.661 349.07 499.317C339.79 487.7 329.73 476.702 321.905 461.774C336.593 463.744 351.373 465.211 365.867 468.144C368.399 468.659 370.645 475.018 371.378 479.016C372.718 486.325 372.833 493.841 373.784 505.228ZM419.613 472.463C380.715 474.628 377.507 478.432 385.711 510.693L419.613 472.463ZM367.242 511.575C367.139 471.535 362.659 466.654 334.588 474.41L367.242 511.575Z" fill="white"/>
<path d="M161.869 331.194C161.869 327.757 161.525 324.24 161.8 320.791C162.797 308.498 168.274 305.302 178.826 312.634C189.676 320.161 200.595 327.596 211.468 335.077L210.861 334.447C219.087 343.269 227.222 352.193 235.574 360.9C254.089 380.204 272.845 399.291 291.188 418.755C295.146 423.031 297.279 428.683 297.134 434.508L228.39 368.931L228.963 369.653L188.427 328.226C187.281 338.652 186.743 343.578 186.205 348.504L186.491 348.264C182.848 335.662 174.61 329.624 161.422 330.529L161.869 331.194Z" fill="white"/>
<path d="M320.324 53.5588V0L351.408 25.2843L380.75 1.4206V59.7682L353.734 29.7065L320.175 53.5931L320.324 53.5588Z" fill="white"/>
<path d="M902.769 352.125H780.691L780.588 346.396H830.232C822.052 338.686 817.744 334.642 812.76 329.956C801.371 336.613 788.997 350.36 779.923 325.11L794.256 335.673L812.141 323.312L830.954 336.521C841.793 324.411 852.895 325.064 859.162 331.938L894.817 330.3L895.436 335.708L906.068 328.032L908.165 330.151L895.94 343.899L879.9 332.064C869.462 341.722 857.993 347.954 847.223 330.449L830.943 345.205L903.124 349.1L902.769 352.125Z" fill="white"/>
<path d="M240.684 7.35502C258.317 6.5187 275.95 5.35014 293.594 5.22412C296.012 5.22412 300.617 10.4024 300.549 13.0832C300.056 29.8096 298.532 46.5016 296.94 68.9218L239 13.5186L240.684 7.35502ZM291.83 53.7306C293.204 38.3217 294.304 26.1665 295.565 12.0751H265.776C300.904 7.81327 279.559 39.6392 291.83 53.7306Z" fill="white"/>
<path d="M908.83 625.085C865.67 635.075 822.43 634.101 779.144 625.257C822.327 618.337 865.567 619.414 908.83 625.085Z" fill="white"/>
<path d="M347.959 562.442L313.518 594.794C315.134 574.058 315.89 556.908 318.307 539.987C318.731 537.077 326.213 533.228 330.452 533.205C340.764 533.136 351.075 535.072 364.125 536.493C360.253 544.913 357.251 551.489 354.249 558.042L347.959 562.442Z" fill="white"/>
<path d="M317.494 159.324C367.345 197.623 400.823 251.732 447.672 292.941L441.795 298.6L313.346 163.346L317.494 159.324Z" fill="white"/>
<path d="M666.06 394.49L740.361 324.366L743.076 327.31L624.023 444.028C628.148 437.658 631.94 431.827 635.641 426.087C645.731 415.631 655.871 405.099 666.06 394.49Z" fill="white"/>
<path d="M297.066 768.6C282.079 798.272 282.079 798.272 260.139 780.709C252.05 785.681 243.48 795.202 235.849 794.457C227.932 793.724 220.955 783.092 213.759 776.963C181.129 801.56 178.734 801.365 162.694 770.341L186.044 790.665C189.63 787.492 192.987 785.177 195.542 782.176C205.544 770.398 215.524 761.554 229.525 777.524C231.392 779.644 236.216 780.56 239.298 780.01C258.58 776.528 277.806 772.461 297.066 768.6Z" fill="white"/>
<path d="M684.002 565.718C687.829 563.851 693.81 559.406 695.15 560.517C709.163 572.214 722.43 584.793 735.904 597.177L733.429 601.863H648.359L646.296 597.28L657.57 586.97C656.745 601.37 662.99 595.837 669.028 591.048C689.754 574.62 689.651 574.757 710.641 592.79C713.998 595.665 718.844 596.822 722.992 598.781L727.002 592.045L684.002 565.718Z" fill="white"/>
<path d="M773.61 476.759L838.676 539.231L904.281 484.824L908.463 489.258C892.113 504.667 876.382 520.82 859.196 535.278C839.788 551.65 839.077 551.146 820.849 532.483C803.88 515.115 787.325 497.369 770.585 479.783L773.61 476.759Z" fill="white"/>
<path d="M218.423 786.93L235.941 813.841C246.768 804.676 253.264 795.087 260.929 794.033C267.712 793.105 275.824 801.732 285.471 807.414L299.517 799.578C289.848 821.861 285.941 821.975 262.545 801.617C255.006 808.17 247.295 814.872 238.152 822.8L214.401 800.884C208.374 806.257 202.096 811.298 196.493 816.992C188.84 824.759 182.985 824.381 177.222 814.815C172.398 806.796 166.693 799.337 161.388 791.627L165.753 788.477L187.293 813.543L218.423 786.93Z" fill="white"/>
<path d="M161.789 691.28C171.321 700.835 180.281 711.066 190.512 719.818C233.432 756.479 219.328 756.857 261.342 720.391C274.059 709.347 286.399 697.879 301.58 684.212C301.58 690.994 302.29 693.377 301.477 694.133C278.94 714.342 256.426 734.609 233.34 754.188C230.304 756.777 222.169 758.094 219.866 756.067C198.223 737.014 177.348 717.115 156.255 697.444L161.789 691.28Z" fill="white"/>
<path d="M217.311 825.114C203.906 832.298 192.002 843.914 183.478 841.818C174.117 839.527 167.861 824.565 160.254 815.136L165.043 811.321L185.609 835.998C202.863 825.618 220.45 797.63 238.759 834.726L266.612 815.697C272.192 822.078 277.084 827.669 282.744 834.119L297.707 827.509C298.693 828.574 299.689 829.64 300.675 830.717C295.702 834.841 289.859 843.055 285.941 842.173C278.058 840.477 271.218 833.867 262.098 828.127C247.478 847.248 230.888 846.022 217.311 825.114Z" fill="white"/>
<path d="M751.028 437.257L690.739 397.217L746.548 346.568L751.028 348.504V437.257ZM701.085 395.636L744.864 423.269V354.977L701.085 395.636Z" fill="white"/>
<path d="M865.131 271.311C864.925 287.132 856.229 297.065 842.595 297.076C818.534 297.076 809.666 290.936 810.102 274.542C810.595 255.742 823.484 240.344 838.676 240.413C854.155 240.482 865.361 253.576 865.131 271.311ZM834.999 272.594C835.331 274.198 835.652 275.813 835.973 277.417C839.868 276.272 846.937 275.515 847.086 273.98C847.556 269.295 846.88 262.776 843.867 259.992C841.312 257.632 831.802 257.815 830.748 259.774C827.7 265.422 824.767 273.522 826.704 278.815C828.64 284.108 836.121 289.492 841.919 290.478C846.788 291.302 855.083 287.27 857.719 282.893C864.433 271.723 862.416 259.981 852.082 251.423C842.916 243.85 832.1 243.403 823.438 252.03C813.917 261.539 812.852 273.041 818.855 288.851C820.814 276.81 820.78 268.573 823.667 261.539C827.311 252.648 834.758 247.207 844.692 253.336C854.625 259.465 856.813 269.283 850.924 279.021C849.057 282.114 841.197 284.348 837.725 282.939C834.254 281.53 832.111 275.183 831.275 270.647C831.034 269.375 837.451 266.866 840.819 264.918L842.927 269.02L834.999 272.594Z" fill="white"/>
<path d="M827.677 133.032H854.247L854.625 129.996L826.726 125.413C828.055 123.237 828.605 121.553 829.167 121.553C858.956 121.117 858.956 121.129 859.047 91.3535C859.105 69.7467 859.047 48.1513 859.047 25.2729L827.345 22.9129L827.414 19.327L864.696 16.3827V144.889L827.505 136.87L827.677 133.032Z" fill="white"/>
<path d="M666.06 394.49C655.871 405.069 645.731 415.601 635.641 426.087C632.101 428.23 628.457 430.464 624.814 432.698C623.668 431.392 622.522 430.074 621.377 428.768C648.004 389.335 682.696 357.349 719.761 327.482L666.06 394.49Z" fill="white"/>
<path d="M192.735 531.578C206.484 517.601 220.233 503.716 233.833 489.613C241.36 481.788 248.509 473.574 255.831 465.555L260.677 469.851L161.789 586.981L155.327 582.548C159.532 576.143 163.439 569.522 168.022 563.404C176.26 552.417 184.921 541.751 193.388 530.948L192.735 531.578Z" fill="white"/>
<path d="M654.213 282.091L639.319 260.061L621.468 282.172L617.47 279.537C623.554 271.517 629.007 257.769 635.882 256.968C644.154 256.085 653.606 266.293 664.009 272.583C668.214 269.959 674.504 266.854 679.763 262.558C691.106 253.221 701.2 249.887 712.657 263.074C714.949 265.709 724.298 264.918 728.697 262.547C748.564 251.766 755.175 254.207 765.579 280.293C761.225 277.532 757.788 276.524 756.413 274.267C747.877 260.439 738.081 262.81 727.769 271.643C720.173 278.185 713.608 279.033 707.501 269.902C700.787 259.855 693.856 260.886 684.266 267.393C675.1 273.637 663.86 276.867 653.526 281.427L654.213 282.091Z" fill="white"/>
<path d="M225.709 393.402C232.114 402.361 238.221 411.572 245.026 420.233C251.122 428 257.996 435.126 264.504 442.607L260.253 446.881C255.556 442.607 250.514 438.678 246.229 434.027C220.496 406.096 195.061 377.89 169.259 350.028C163.049 343.326 155.843 337.541 149.094 331.331L153.001 326.863L161.846 331.194L161.399 330.529L205.911 369.596L225.709 393.402Z" fill="white"/>
<path d="M314.607 468.774L364.584 526.205C325.445 534.03 311.788 519.045 314.607 468.774Z" fill="white"/>
<path d="M498.119 155.498C503.63 161.558 509.439 167.39 514.583 173.748C526.04 187.839 537.612 201.839 548.038 216.652C551.155 221.086 553.687 230.641 551.292 233.516C532.365 256.166 512.188 277.784 492.39 299.711L487.945 295.988C490.82 292.345 493.513 288.541 496.595 285.07C510.573 269.318 524.196 253.221 538.884 238.099C546.56 230.24 545.025 224.729 538.884 217.305C525.777 201.587 513.277 185.353 500.662 169.188C498.285 165.827 496.078 162.347 494.051 158.763L498.119 155.498Z" fill="white"/>
<path d="M687.268 754.073V619.85C698.897 633.105 698.393 735.193 687.268 754.073Z" fill="white"/>
<path d="M289.309 91.0556C293.411 98.3266 297.505 105.582 301.591 112.823L297.81 115.71C262.728 79.3548 227.672 42.9807 192.643 6.58744L195.428 3.15051L215.02 15.0996L231.976 29.8554L286.869 88.2832L289.309 91.0556Z" fill="white"/>
<path d="M623.806 178.25L651.922 197.829L671.846 176.429C677.724 181.103 683.441 184.998 688.356 189.707C698.072 198.998 706.23 201.702 714.857 187.885C716.392 185.399 725.936 185.422 730.026 187.599C736.5 191.036 741.484 197.245 752.082 206.754C755.622 199.422 759.048 192.296 762.485 185.17L767.71 190.154L749.24 213.422L724.034 192.136C714.559 196.844 705.302 205.425 697.476 204.279C688.436 202.951 680.668 193.041 672.557 187.015C647.202 208.289 644.566 207.957 623.806 178.25Z" fill="white"/>
<path d="M782.478 930.044C784.307 930.044 785.789 887.164 785.789 834.268C785.789 781.373 784.307 738.492 782.478 738.492C780.649 738.492 779.167 781.373 779.167 834.268C779.167 887.164 780.649 930.044 782.478 930.044Z" fill="white"/>
<path d="M786.786 663.544C784.964 658.824 782.066 654.952 782.501 651.481C782.959 647.769 786.557 644.458 788.791 640.975C792.045 643.415 795.952 645.34 798.369 648.433C800.936 651.71 802.07 656.109 803.949 660.268L818.557 640.551C821.032 645.798 823.518 651.045 827.116 658.653C828.525 657.667 832.1 656.155 834.219 653.486C837.278 649.636 839.295 644.962 841.758 640.632C844.29 645.489 846.811 650.335 851.325 658.962L903.009 662.181L902.918 663.556L786.786 663.544Z" fill="white"/>
<path d="M293.479 663.544C272.856 688.749 252.29 714.056 230.796 740.417L158.673 673.477L162.453 669.078L230.052 729.934L295.989 666.168C295.175 665.297 294.327 664.472 293.479 663.544Z" fill="white"/>
<path d="M471.125 89.8298C487.44 89.8298 503.756 89.9329 520.071 89.8298C529.993 89.7381 542.275 93.6677 540.923 72.0036C556.035 101.893 582.25 83.6319 601.888 96.6349H471.274L471.125 89.8298Z" fill="white"/>
<path d="M108.764 298.474L3.05914 188.63L8.61595 183.303L114.275 293.078L108.764 298.474Z" fill="white"/>
<path d="M643.157 745.813V619.048H648.45V745.813H643.157Z" fill="white"/>
<path d="M600.673 627.388H475.559C475.666 624.944 475.773 622.504 475.88 620.067C517.596 621.007 559.599 615.542 600.673 627.388Z" fill="white"/>
<path d="M510.905 800.552L482.205 797.814C482.205 797.218 482.273 796.668 482.319 796.026H600.364C600.364 797.012 600.364 797.986 600.421 798.971H537.268C535.057 811.859 534.152 821.746 530.967 830.843C530.463 832.309 515.305 831.69 514.594 829.514C511.753 820.898 511.971 811.286 510.905 800.552Z" fill="white"/>
<path d="M211.468 335.077L194.282 313.31L196.195 311.248L252.749 350.108L267.196 363.856C277.416 377.329 287.632 390.809 297.845 404.297L295.267 407.241C291.83 404.354 288.255 401.616 284.955 398.557C265.111 379.941 245.485 361.095 225.377 342.73C221.356 339.053 215.684 337.185 210.78 334.482L211.468 335.077Z" fill="white"/>
<path d="M227.199 626.964C277.428 626.964 318.147 625.569 318.147 623.848C318.147 622.127 277.428 620.732 227.199 620.732C176.969 620.732 136.251 622.127 136.251 623.848C136.251 625.569 176.969 626.964 227.199 626.964Z" fill="white"/>
<path d="M653.503 281.427L663.471 293.055L695.024 270.246C701.99 277.967 708.086 284.726 714.044 291.314C745.769 271.678 748.186 272.262 759.804 303.916L740.155 281.003C711.752 297.523 711.752 297.523 694.486 278.712C691.335 280.27 687.016 281.198 684.507 283.844C673.21 295.725 662.176 300.697 645.872 290.947C640.556 287.762 629.97 293.399 622.419 294.877L640.384 273.923C645.483 276.902 649.837 279.445 654.19 282.011L653.503 281.427Z" fill="white"/>
<path d="M385.31 793.758V897.954H379.902V774.454L384.027 771.498C387.132 774.844 392.895 778.143 392.952 781.534C393.593 819.249 393.353 856.986 389.641 894.712V793.896L385.31 793.758Z" fill="white"/>
<path d="M277.554 506.935L295.725 495.399L299.334 498.836C267.254 534.877 235.192 570.923 203.15 606.973L198.372 603.226C207.966 590.67 217.552 578.106 227.13 565.535L228.482 564.824C245.026 545.295 261.567 525.766 278.104 506.236L277.554 506.935Z" fill="white"/>
<path d="M540.087 289.332C551.831 275.504 562.658 260.691 575.605 248.089C587.188 236.793 587.681 228.326 577.403 215.621C564.502 199.674 554.134 181.699 542.665 164.594L547.408 161.089C552.289 167.436 557.387 173.691 562.016 180.175C570.449 192.078 577.885 204.738 587.062 216.011C595.804 226.734 594.864 235.968 586.42 245.614C572.672 261.332 558.873 277.016 545.025 292.666L540.087 289.332Z" fill="white"/>
<path d="M516.279 290.993C530.222 274.862 543.982 258.571 558.178 242.67C566.267 233.596 568.375 226.219 558.27 216.32C547.958 206.181 539.674 193.934 530.944 182.272C526.938 177.204 525.009 170.803 525.548 164.365C541.072 183.394 556.86 202.229 571.824 221.647C573.989 224.454 574.115 231.832 571.904 234.513C555.325 255.134 537.956 275.16 520.827 295.358L516.279 290.993Z" fill="white"/>
<path d="M721.663 161.81L745.723 182.432L764.204 163.059L767.515 165.534L746.754 191.643L719.956 169.269L704.82 194.129C692.504 183.876 684.885 173.107 675.329 170.976C667.733 169.28 657.788 178.136 647.087 183.142C641.668 178.48 634.553 172.534 627.61 166.37C625.627 164.594 624.23 162.177 624.86 157.365L650.158 176.429L672.82 158.889L701.635 183.303L721.663 161.81Z" fill="white"/>
<path d="M802.013 7.73309V142.724C798.656 142.724 797.327 143.137 796.525 142.655C790.796 139.218 785.205 135.575 779.568 132.012C784.013 128.003 789.731 124.715 792.526 119.777C794.886 115.618 794.142 109.546 794.279 104.299C794.978 78.0297 795.425 51.7372 796.135 25.4562C796.296 19.3843 796.88 13.3124 797.281 7.24046L802.013 7.73309Z" fill="white"/>
<path d="M320.175 53.5931C343.353 73.871 366.795 93.8739 389.606 114.576C399.677 123.741 408.465 134.269 417.826 144.168L414.389 148.315C410.218 145.118 405.796 142.209 401.923 138.691C376.854 115.962 351.74 93.3469 327.221 70.0102C323.303 66.2869 322.638 59.161 320.347 53.5817C320.289 53.5768 320.231 53.5807 320.175 53.5931Z" fill="white"/>
<path d="M600.616 68.3605H475.112C475.112 67.043 475.204 65.714 475.238 64.3965H600.754L600.616 68.3605Z" fill="white"/>
<path d="M600.753 317.606H470.564C470.564 315.957 470.564 314.318 470.564 312.669H600.788L600.753 317.606Z" fill="white"/>
<path d="M135.311 419.775C122.399 408.616 108.959 398.008 97.0665 385.852C94.6376 383.366 96.2645 372.884 99.5413 369.63C110.884 358.345 123.785 348.619 136.09 338.308L141.086 343.429L102.325 377.317L141.544 412.901L135.311 419.775Z" fill="white"/>
<path d="M474.333 330.529H593.375C593.375 332.076 593.375 333.611 593.375 335.112H474.333V330.529Z" fill="white"/>
<path d="M469.979 441.588H605.176L605.107 446.503H470.209L469.979 441.588Z" fill="white"/>
<path d="M792.847 515.986C827.929 559.52 827.001 551.501 793.901 588.218C767.205 561.983 766.793 545.933 792.847 515.986ZM792.538 525.999C775.81 553.597 776.669 562.086 796.742 576.052C816.804 553.265 816.804 553.265 792.583 525.999H792.538Z" fill="white"/>
<path d="M903.536 390.183L780.817 384.764L781.023 382.152H904.27L903.536 390.183Z" fill="white"/>
<path d="M289.309 91.0556L286.869 88.2144L231.977 29.7867L215.02 15.0308L212.373 4.39927L216.681 1.14565C238.832 23.4628 260.944 45.7913 283.019 68.1313C287.888 73.0805 293.227 77.9953 296.55 83.9297C301.087 92.0753 297.891 94.9623 289.309 91.0556Z" fill="white"/>
<path d="M782.226 746.959H908.44C908.348 748.54 908.245 750.121 908.154 751.702H781.39C781.642 750.109 781.928 748.528 782.226 746.959Z" fill="white"/>
<path d="M320.198 902.926V771.315L324.586 771.246V902.766L320.198 902.926Z" fill="white"/>
<path d="M596.205 570.896C596.205 597.464 595.174 598.987 576.888 598.816C563.678 598.701 549.597 601.68 550.971 579.34C552.919 547.743 551.75 548.407 581.368 547.17C602.312 546.299 595.391 560.482 596.205 570.896ZM588.975 556.37C556.734 552.578 552.312 558.203 560.905 590.624C593.57 593.443 594.693 592.068 588.975 556.37Z" fill="white"/>
<path d="M14.6425 744.759H121.883V749.25H14.6654L14.6425 744.759Z" fill="white"/>
<path d="M720.15 452.288L685.389 422.501L647.683 451.257L643.008 445.655C656.551 433.419 670.024 421.092 683.785 409.12C684.839 408.204 688.814 408.96 690.098 410.266C702.071 422.398 713.746 434.817 725.512 447.156L720.15 452.288Z" fill="white"/>
<path d="M444.659 446.01H323.738L323.601 442.264H444.544L444.659 446.01Z" fill="white"/>
<path d="M439.629 473.597C441.302 477.149 442.161 478.18 442.184 479.165C443.742 540.193 447.993 527.889 384.978 530.936C403.825 511.174 421.16 492.981 439.629 473.597ZM403.057 521.714C436.753 528.038 442.872 521.393 434.977 488.066L403.057 521.714Z" fill="white"/>
<path d="M426.488 295.037L319.659 189.42L321.951 187.129L427.805 293.674L426.488 295.037Z" fill="white"/>
<path d="M189.722 289.355L278.94 201.805C280.808 203.695 282.664 205.597 284.52 207.533L194.603 294.338L189.722 289.355Z" fill="white"/>
<path d="M228.482 564.859L227.13 565.569L187.831 602.31L184.91 600.019L289.332 479.978L292.265 481.995L277.554 506.958L278.104 506.294C261.575 525.808 245.034 545.329 228.482 564.859Z" fill="white"/>
<path d="M114.848 25.7311H9.83038V21.1486H115.032L114.848 25.7311Z" fill="white"/>
<path d="M140.226 623.367V733.658H134.36V622.966L140.226 623.367Z" fill="white"/>
<path d="M438.816 597.315L386.673 541.178C406.426 542.427 422.042 543 437.532 544.753C440.271 545.062 444.407 550.103 444.579 553.15C445.346 566.783 444.911 580.485 444.911 594.164L438.816 597.315ZM439.812 550.859L404.295 548.167C416.955 562.556 426.659 573.577 438.667 587.256C439.32 579.66 439.744 576.808 439.812 573.955C439.893 567.013 439.824 560.07 439.824 550.859H439.812Z" fill="white"/>
<path d="M680.439 505.228C693.982 492.5 701.062 485.752 708.269 479.119C715.476 472.486 722.533 466.368 729.671 459.998L733.819 464.409C724.275 473.643 714.777 482.934 705.176 492.099C682.398 513.866 688.906 515.631 664.387 490.953C655.749 482.247 647.866 472.784 641.897 461.396L680.439 505.228Z" fill="white"/>
<path d="M225.709 393.402L205.934 369.596C209.039 353.751 192.185 356.066 186.457 348.264L186.17 348.504C194.007 351.815 206.587 353.327 208.707 358.815C213.118 370.34 219.671 370.787 228.929 369.63L228.356 368.908C229.754 375.645 231.155 382.385 232.561 389.129L237.556 386.391C242.082 393.173 246.103 400.368 251.305 406.577C254.507 410.47 258.739 413.384 263.519 414.986C274.666 418.251 276.557 424.816 274.162 432.171C254.88 423.257 248.005 399.543 225.709 393.402Z" fill="white"/>
<path d="M361.341 902.273V772.655H365.615V902.571L361.341 902.273Z" fill="white"/>
<path d="M448.566 57.6373L419.922 26.4758L452.37 3.43692V55.8042L448.566 57.6373Z" fill="white"/>
<path d="M603.274 870.86H472.225C472.225 869.061 472.225 867.251 472.225 865.441C515.82 860.698 559.53 866.644 603.16 866.002C603.171 867.629 603.217 869.245 603.274 870.86Z" fill="white"/>
<path d="M470.896 422.994H600.696L600.582 427.382H470.804C470.816 425.915 470.896 424.46 470.896 422.994Z" fill="white"/>
<path d="M604.019 844.751H472.26C472.26 843.158 472.26 841.566 472.202 839.973H603.847L604.019 844.751Z" fill="white"/>
<path d="M811.442 143.297V11.1013H815.624V143.297H811.442Z" fill="white"/>
<path d="M347.959 562.442L354.249 558.042L374.368 542.599C374.368 561.857 374.666 576.407 374.07 590.911C373.979 593.385 370.117 597.659 367.837 597.785C353.699 598.426 339.503 598.105 323.521 598.105L347.959 562.442ZM334.027 591.621C371.126 592.767 375.766 587.096 364.034 558.054L334.027 591.621Z" fill="white"/>
<path d="M139 823.098L6.22135 816.992L6.08386 810.908C11.6063 810.645 17.1402 810.015 22.6397 810.21C31.2671 810.507 39.8257 811.665 48.4874 811.848C51.833 811.917 55.2816 809.419 58.5584 809.671C84.2343 811.676 109.887 814.025 135.529 816.419C136.892 816.545 138.141 817.943 139.447 818.71L139 823.098Z" fill="white"/>
<path d="M167.518 882.282H294.946V886.864C252.348 888.95 209.795 895.915 167.117 886.864C167.277 885.284 167.392 883.783 167.518 882.282Z" fill="white"/>
<path d="M320.622 107.335L356.827 141.899L317.677 146.562L314.653 110.108L320.622 107.335Z" fill="white"/>
<path d="M888.504 524.567C912.141 556.541 912.141 556.541 884.265 589.96C851.279 567.998 852.425 545.784 888.504 524.567ZM883.658 578.859C904.453 553.185 904.556 549.152 884.804 533.411C860.904 556.667 860.835 559.348 883.658 578.859Z" fill="white"/>
<path d="M675.306 746.959C653.961 731.962 653.95 731.836 669.223 710.298C655.898 699.907 661.477 690.032 672.66 680.385C660.698 669.937 654.236 659.065 669.967 646.99C664.433 637.962 654.168 628.522 674.882 621.362C661.42 634.147 688.826 651.149 665.018 659.374C679.42 680.683 679.42 680.683 667.962 695.267L672.889 696.596C671.067 705.143 668.97 713.643 667.561 722.259C666.897 726.291 666.622 730.851 667.882 734.597C669.417 739.031 672.763 742.846 675.306 746.959Z" fill="white"/>
<path d="M617.768 600.316V466.746L620.838 466.815V600.168L617.768 600.316Z" fill="white"/>
<path d="M795.138 903.728V771.155H799.492V903.465L795.138 903.728Z" fill="white"/>
<path d="M106.244 729.992H14.1613C25.9279 717.745 85.5748 716.462 106.244 729.992Z" fill="white"/>
<path d="M8.78778 845.724H138.393L138.336 849.081H9.00547L8.78778 845.724Z" fill="white"/>
<path d="M472.775 900.75H601.166V905H472.798C472.787 903.579 472.787 902.159 472.775 900.75Z" fill="white"/>
<path d="M414.297 901.46V773.148H418.192V901.46H414.297Z" fill="white"/>
<path d="M881.836 903.637V770.525L886.087 770.593V903.488L881.836 903.637Z" fill="white"/>
<path d="M239.802 443.593H153.666V438.85H239.745C239.733 440.431 239.767 442.012 239.802 443.593Z" fill="white"/>
<path d="M294.797 857.639H166.475L166.418 853.778H294.579C294.66 855.073 294.728 856.356 294.797 857.639Z" fill="white"/>
<path d="M169.947 869.542H294.27L294.121 872.67H169.786L169.947 869.542Z" fill="white"/>
<path d="M489.686 102.718C503.263 100.908 511.616 104.253 509.851 119.078C508.453 130.534 514.228 145.909 492.23 144.672C470.014 143.423 469.315 143.228 468.169 123.237C466.989 105.617 474.631 100.037 489.686 102.718ZM505.898 117.211C500.765 114.358 495.908 109.936 490.454 108.973C480.612 107.232 474.07 110.474 474.253 122.904C474.414 134.487 479.134 137.695 489.984 137.889C502.656 138.119 504.409 131.21 505.898 117.211Z" fill="white"/>
<path d="M137.018 11.8574H5.43079C24.5989 2.17671 106.439 2.1538 137.018 11.8574Z" fill="white"/>
<path d="M617.779 407.849L703.812 315.281L708.395 319.462L622.671 412.614C621.029 411.041 619.398 409.452 617.779 407.849Z" fill="white"/>
<path d="M475.869 888.434H601.361V891.527H475.834L475.869 888.434Z" fill="white"/>
<path d="M624.562 752.893V623.057L627.999 622.954V753.053L624.562 752.893Z" fill="white"/>
<path d="M267.196 363.81L252.749 350.062C246.585 342.329 249.14 326.714 232.538 327.837C231.564 327.906 230.029 319.68 228.665 315.052L253.768 324.377L253.15 323.701C250.858 335.925 254.089 344.025 268.101 345.308C271 345.572 274.311 348.218 276.236 350.704C281.438 357.372 285.986 364.543 292.815 374.43L267.196 363.81Z" fill="white"/>
<path d="M630.313 140.708V18.8687H634.071V140.88L630.313 140.708Z" fill="white"/>
<path d="M296.882 901.746H167.151L167.266 898.252H296.997C296.962 899.421 296.917 900.589 296.882 901.746Z" fill="white"/>
<path d="M445.759 415.272H347.661V410.69H446.034L445.759 415.272Z" fill="white"/>
<path d="M582.536 106.774C595.701 107.919 608.888 106.774 606.826 126.376C605.337 140.215 603.389 149.048 585.584 148.704C564.411 148.28 566.645 135.736 566.519 121.816C566.393 109.203 571.343 104.517 582.536 106.774ZM574.849 116.729C570.266 140.078 573.462 143.297 597.236 139.482C603.95 116.122 600.731 112.846 574.849 116.729Z" fill="white"/>
<path d="M903.857 317.973H781.607C781.607 316.827 781.607 315.762 781.688 314.651H903.983C903.983 315.762 903.891 316.862 903.857 317.973Z" fill="white"/>
<path d="M139.665 807.3C127.474 805.879 115.295 803.439 103.082 803.278C84.1655 803.026 65.2724 804.607 46.2876 804.802C40.8683 804.802 35.3458 803.095 29.9953 801.675C23.476 799.945 17.0829 797.688 10.2657 795.545C14.0581 789.611 19.8555 786.942 30.0984 794.148C35.1969 797.734 43.3316 797.298 50.1602 798.043C56.9887 798.788 63.634 798.432 70.348 798.994C75.9735 799.475 81.5418 801.193 87.1673 801.285C104.8 801.594 122.444 801.4 140.077 801.4L139.665 807.3Z" fill="white"/>
<path d="M630.439 594.474V475.785L633.613 475.946V594.588L630.439 594.474Z" fill="white"/>
<path d="M320.278 207.693L397.924 288.839L393.066 293.422L315.248 212.631L320.278 207.693Z" fill="white"/>
<path d="M607.685 775.244H474.941C488.907 765.426 574.573 765.93 607.685 775.244Z" fill="white"/>
<path d="M307.904 398.294L400.709 313.516L403.539 316.289L307.297 397.538L307.904 398.294Z" fill="white"/>
<path d="M874.824 12.3615V142.461H871.272V12.0751L874.824 12.3615Z" fill="white"/>
<path d="M264.309 580.176L241.2 584.278V604.017C230.304 584.804 231.564 581.368 247.982 575.376C251.58 574.07 256.908 569.808 256.759 567.196C255.773 551.031 264.63 546.735 279.238 548.201C280.487 537.742 277.932 524.727 292.391 526.113C289.741 536.172 287.105 546.215 284.486 556.244L285.161 555.533C262.957 554.502 262.957 554.502 263.53 580.737L264.309 580.176Z" fill="white"/>
<path d="M517.734 128.152C518.215 115.16 516.645 104.792 533.694 105.239C549.597 105.605 556.058 110.635 554.924 126.731C554.111 138.313 553.469 147.696 537.853 146.803C523.818 145.943 514.617 142.151 517.734 128.152ZM544.635 140.376L550.055 135.426C548.096 128.266 547.603 120.029 543.536 114.392C541.622 111.757 530.245 111.86 527.736 114.736C524.299 118.7 522.179 129.194 524.768 131.921C529.329 136.755 537.795 137.775 544.635 140.376Z" fill="white"/>
<path d="M25.8821 609.207C18.6181 599.068 10.6782 592.48 11.8354 588.585C13.8748 581.86 20.7836 573.497 27.0049 572.18C31.5878 571.217 43.5264 581.345 42.8962 584.919C41.5901 592.297 34.0397 598.38 25.8821 609.207Z" fill="white"/>
<path d="M391.657 56.5603V4.03265C419.338 19.9571 419.854 32.078 391.657 56.5603Z" fill="white"/>
<path d="M143.503 28.0911V144.844H139.516V28.1713L143.503 28.0911Z" fill="white"/>
<path d="M475.617 782.474H604.34V786.896H474.746C475.032 785.361 475.319 783.894 475.617 782.474Z" fill="white"/>
<path d="M339.481 426.179H445.243L445.094 429.616H339.343L339.481 426.179Z" fill="white"/>
<path d="M517.046 648.262L600.685 654.528C600.559 656.969 600.421 659.409 600.295 661.86L516.519 657.816L517.046 648.262Z" fill="white"/>
<path d="M500.33 638.65H599.654C599.654 640.162 599.654 641.674 599.573 643.232H500.525L500.33 638.65Z" fill="white"/>
<path d="M669.303 254.504C661.454 244.652 653.01 238.649 653.388 233.264C653.767 227.88 662.554 219.047 668.088 218.749C673.164 218.474 682.295 226.975 683.097 232.497C683.853 237.835 676.12 244.331 669.303 254.504Z" fill="white"/>
<path d="M380.097 140.822L396.366 144.076L396.286 146.757H376.946C376.282 141.578 375.64 136.572 374.895 130.844C363.621 128.552 348.246 129.767 354.043 109.718C342.838 106.373 325.904 112.445 328.963 91.9492L316.36 92.7512L315.329 89.6809L332.629 82.0051C334.371 88.982 335.7 94.3665 337.143 100.163L357.194 102.455L359.623 120.991C367.872 126.949 389.95 117.554 380.097 140.822Z" fill="white"/>
<path d="M858.348 882.717V903.442H850.638C850.638 880.323 850.099 857.192 850.798 834.096C851.474 811.378 853.41 788.683 854.865 764.922C857.088 773.331 858.807 779.735 860.457 786.14C861.156 788.889 863.183 792.773 862.072 794.262C854.762 804.069 861.35 818.985 858.165 823.797C847.052 840.603 860.903 857.227 854.144 872.876C853.124 875.225 857.226 879.75 858.967 883.324L858.348 882.717Z" fill="white"/>
<path d="M748.312 893.956C750.26 882.5 751.967 872.521 753.686 862.52L759.781 863.196C758.475 875.626 760.847 896.316 755.198 898.848C741.289 905.057 723.714 902.766 707.627 903.831C707.49 901.357 707.364 898.894 707.226 896.431L748.312 893.956Z" fill="white"/>
<path d="M193.629 742.685C182.882 749.009 176.5 755.734 170.634 755.287C165.387 754.909 160.7 746.649 155.739 741.872C161.342 736.35 166.269 727.792 172.765 726.36C177.21 725.432 183.787 734.551 193.629 742.685Z" fill="white"/>
<path d="M319.201 244.503C338.885 250.369 347.077 269.615 359.909 283.317C361.811 285.357 360.172 290.707 360.172 294.533L355.338 295.908L314.927 248.604L319.201 244.503Z" fill="white"/>
<path d="M881.87 431.323L870.115 444.211C872.624 431.071 884.311 418.732 871.261 404.114L886.155 416.361L898.678 397.584L904.831 400.138C892.526 415.868 885.651 431.632 903.49 448.255L898.335 449.401L881.87 431.323Z" fill="white"/>
<path d="M450.021 763.719L391.841 698.12L396.916 693.537L456.345 757.991L450.021 763.719Z" fill="white"/>
<path d="M478.103 877.321H594.395V880.002H478.091C478.091 879.109 478.103 878.215 478.103 877.321Z" fill="white"/>
<path d="M647.465 35.3316V139.402H644.223V35.3889L647.465 35.3316Z" fill="white"/>
<path d="M624.31 812.146C624.906 800.094 621.251 780.904 627.002 777.467C638.735 770.456 655.543 771.922 670.254 769.894C670.666 772.545 671.075 775.191 671.48 777.834C666.633 778.533 661.592 780.446 656.963 779.724C637.268 776.688 630.611 786.082 631.757 804.229C631.929 806.887 630.967 809.614 630.52 812.249L624.31 812.146Z" fill="white"/>
<path d="M432.125 598.85C389.732 607.832 378.516 596.559 384.13 555.384C399.105 568.937 414.858 583.201 432.125 598.85ZM389.102 561.479C387.899 594.703 393.067 599.194 422.088 591.942L389.102 561.479Z" fill="white"/>
<path d="M148.349 421.39H222.467C216.544 429.765 171.195 431.334 148.349 421.39Z" fill="white"/>
<path d="M665.476 904.416C652.873 903.442 636.684 906.776 628.618 900.2C621.56 894.472 623.6 877.562 624.814 863.608C627.3 889.958 642.264 899.341 667.962 895.869C667.137 898.71 666.301 901.62 665.476 904.416Z" fill="white"/>
<path d="M454.638 622.782L397.638 673.512C408.431 652.604 433.282 639.211 450.112 618.418L454.638 622.782Z" fill="white"/>
<path d="M301.454 741.322C292.769 747.52 287.029 754.783 282.16 754.233C277.29 753.684 268.674 744.415 269.557 740.841C271.046 734.632 278.55 729.866 283.546 724.493L301.454 741.322Z" fill="white"/>
<path d="M229.387 294.258C218.445 273.556 219.076 272.606 246.138 267.908C245.508 251.801 252.646 242.979 270.611 247.149C275.125 237.709 272.192 220.043 288.725 226.975C284.99 233.665 282.675 241.604 277.439 246.198C271.711 251.205 263.301 253.072 253.585 257.46C253.173 260.45 252.302 266.625 251.294 274.187L230.728 276.81C230.292 281.908 229.88 287.556 229.387 294.258Z" fill="white"/>
<path d="M83.3979 710.756H14.8946L14.7112 705.956H83.249L83.3979 710.756Z" fill="white"/>
<path d="M123.739 140.914V41.942H127.176V141.292L123.739 140.914Z" fill="white"/>
<path d="M182.79 636.267H275.148L275.216 640.254H182.813C182.802 638.925 182.79 637.596 182.79 636.267Z" fill="white"/>
<path d="M905.942 735.502H786.729L786.798 732.902H906.068C906.034 733.807 905.988 734.677 905.942 735.502Z" fill="white"/>
<path d="M619.624 379.414L681.012 313.173L685.927 317.595L625.203 384.26L619.624 379.414Z" fill="white"/>
<path d="M806.596 443.363L794.818 426.809L781.837 444.509C792.606 428.012 792.48 413.279 779.66 397.607L797.43 413.863L811.339 395.533L816.014 397.755C809.804 412.385 790.67 425.675 815.808 443.581L806.596 443.363Z" fill="white"/>
<path d="M9.29187 38.0697H103.735L103.643 41.14H9.29187V38.0697Z" fill="white"/>
<path d="M379.959 376.194H445.197L445.048 384.283L379.891 381.258L379.959 376.194Z" fill="white"/>
<path d="M122.593 623.699V713.998H116.865C114.646 683.941 114.592 653.764 116.704 623.699H122.593Z" fill="white"/>
<path d="M643.787 580.096V490.472L647.683 490.552V580.6L643.787 580.096Z" fill="white"/>
<path d="M284.485 556.278L301.454 550.802L288.851 572.42L289.275 571.916L253.757 605.793L249.323 602.447L264.217 580.176L263.438 580.772C270.656 572.37 277.867 563.969 285.07 555.568L284.485 556.278Z" fill="white"/>
<path d="M727.025 748.333C729.683 705.769 732.356 663.212 735.045 620.663L739.238 620.881L731.711 748.585L727.025 748.333Z" fill="white"/>
<path d="M447.008 403.083L366.806 398.328C366.909 396.037 367.024 393.746 367.127 391.454L447.328 396.197L447.008 403.083Z" fill="white"/>
<path d="M266.394 153.001C273.108 161.238 280.384 166.748 279.444 169.704C277.348 176.223 271.161 181.424 266.635 187.164C261.892 183.2 252.886 178.755 253.299 175.386C254.055 168.902 260.081 163.025 266.394 153.001Z" fill="white"/>
<path d="M854.992 450.237L842.388 431.059L829.132 448.576C842.881 430.968 837.279 414.104 823.507 397.309L828.8 396.679L843.099 417.3L857.993 400.299C844.245 416.441 848.106 432.594 859.552 449.011L854.992 450.237Z" fill="white"/>
<path d="M137.282 835.173H16.4985L16.5787 832.779H137.373L137.282 835.173Z" fill="white"/>
<path d="M560.538 796.107C567.172 806.154 573.806 811.768 573.141 816.213C572.19 822.159 565.557 827.199 561.352 832.641C556.631 828.494 547.981 824.278 548.073 820.245C548.176 813.853 554.156 807.586 560.538 796.107Z" fill="white"/>
<path d="M660.652 143.961V53.2953L663.448 53.0776V143.767L660.652 143.961Z" fill="white"/>
<path d="M360.745 71.1558H446.584L446.481 74.0658H360.665L360.745 71.1558Z" fill="white"/>
<path d="M452.622 778.807V894.288H449.712V778.086L452.622 778.807Z" fill="white"/>
<path d="M113.714 56.1365V139.551L111.251 139.425V56.1365H113.714Z" fill="white"/>
<path d="M615.052 819.054C605.508 825.424 599.195 832.469 595.793 831.266C590.224 829.307 584.771 822.537 582.88 816.637C582.078 814.116 590.728 805.043 594.418 805.421C600.123 806.005 605.256 812.146 615.052 819.054Z" fill="white"/>
<path d="M721.64 209.481C728.067 219.219 734.426 224.592 733.922 229.209C733.326 234.628 726.738 239.37 722.763 244.411C717.962 240.207 709.552 236.243 709.266 231.752C708.911 226.173 715.281 220.181 721.64 209.481Z" fill="white"/>
<path d="M373.119 697.799C356.231 716.282 339.336 734.758 322.432 753.225L317.769 749.021L367.941 692.884L373.119 697.799Z" fill="white"/>
<path d="M730.164 619.987C727.873 661.566 725.554 703.142 723.209 744.713L719.635 744.518C721.766 703.008 723.901 661.505 726.039 620.01L730.164 619.987Z" fill="white"/>
<path d="M367.643 683.536L317.517 625.521L323.097 620.709L372.592 678.919L367.643 683.536Z" fill="white"/>
<path d="M828.537 565.947C827.46 576.831 827.391 588.024 824.366 598.334C823.805 600.248 811.202 598.609 801.119 598.609L823.919 564.802L828.537 565.947Z" fill="white"/>
<path d="M850.306 563.335L870.757 599.32C845.665 609.757 845.115 598.793 850.306 563.335Z" fill="white"/>
<path d="M425.422 678.793C426.694 684.063 426.361 690.731 429.535 694.339C437.395 703.275 446.859 710.814 455.669 718.925L451.086 724.332C445.037 718.982 439.022 713.609 432.938 708.293C425.422 701.706 417.86 695.176 409.714 687.145C419.647 691.727 412.005 667.749 425.754 679.125L425.422 678.793Z" fill="white"/>
<path d="M751.853 811.115C761.019 779.254 736.271 782.267 719.474 777.123C720.345 774.993 721.22 772.862 722.098 770.731C733.956 772.552 748.324 771.052 756.791 777.398C762.21 781.465 758.91 797.138 759.529 807.609L751.853 811.115Z" fill="white"/>
<path d="M253.768 324.423L251.809 316.014L255.315 312.187L302.84 355.08L299.036 359.823L253.207 323.747L253.768 324.423Z" fill="white"/>
<path d="M191.715 274.416C184.738 280.682 179.559 288.324 176.443 287.556C171.15 286.227 163.84 279.823 163.599 275.298C163.359 270.773 170.565 264.082 175.755 262.49C178.883 261.539 184.463 268.676 191.715 274.416Z" fill="white"/>
<path d="M340.649 334.528C361.467 329.945 361.467 329.945 364.801 318.042C370.771 334.505 369.625 336.04 347.615 339.5C348.612 355.057 339.332 361.37 324.231 361.003C323.246 367.476 322.398 373.01 321.275 380.33C314.733 360.453 316.635 357.681 339.458 352.182C340.042 346.328 340.672 340.095 341.302 333.852L340.649 334.528Z" fill="white"/>
<path d="M534.782 665.618L601.235 669.227L601.166 671.942H534.714L534.782 665.618Z" fill="white"/>
<path d="M81.6449 57.2134H10.0023L10.1512 55.1627H81.8053L81.6449 57.2134Z" fill="white"/>
<path d="M676.383 139.849V65.1183L680.726 65.0037V139.768L676.383 139.849Z" fill="white"/>
<path d="M549.47 685.575H600.845L600.742 689.963H549.425L549.47 685.575Z" fill="white"/>
<path d="M8.70758 66.8368H67.2316V70.4684H8.7305L8.70758 66.8368Z" fill="white"/>
<path d="M697.843 529.653H760.767C760.767 531.246 760.709 532.838 760.675 534.419H697.831C697.831 532.838 697.843 531.246 697.843 529.653Z" fill="white"/>
<path d="M449.689 87.2979H378.264C378.264 86.1523 378.264 85.0983 378.344 83.9985H449.861L449.689 87.2979Z" fill="white"/>
<path d="M295.175 255.409L251.637 292.425L247.054 287.224L289.996 249.418L295.175 255.409Z" fill="white"/>
<path d="M297.684 301.533L266.108 293.754L295.439 271.368C296.286 282.733 296.894 290.787 297.684 301.533Z" fill="white"/>
<path d="M415.007 735.342C383.19 766.858 373.36 766.114 352.061 731.137C371.71 754.646 392.333 760.477 415.007 735.342Z" fill="white"/>
<path d="M95.8635 695.519V628.156H99.1746V695.325L95.8635 695.519Z" fill="white"/>
<path d="M83.8333 83.5517V142.884L78.1046 142.678L81.347 83.4142L83.8333 83.5517Z" fill="white"/>
<path d="M198.338 654.654H259.428V659.019H197.96L198.338 654.654Z" fill="white"/>
<path d="M335.493 295.186C328.539 295.186 316.818 297.477 315.558 294.739C312.373 287.992 313.908 279.021 313.553 270.933L319.121 268.962L337.097 290.088C336.559 291.784 336.032 293.491 335.493 295.186Z" fill="white"/>
<path d="M604.237 245.568L566.336 299.414L561.822 296.252L599.138 242.143L604.237 245.568Z" fill="white"/>
<path d="M447.363 359.319H402.851C402.759 357.956 402.668 356.593 402.588 355.229H446.836L447.363 359.319Z" fill="white"/>
<path d="M57.4356 673.191H13.1989V669.078H57.3898L57.4356 673.191Z" fill="white"/>
<path d="M663.288 313.711L618.81 352.308L619.509 353.35L659.747 310.962L663.288 313.711Z" fill="white"/>
<path d="M398.406 892.455V778.006H400.789V892.112L398.406 892.455Z" fill="white"/>
<path d="M710.423 513.981H756.722L756.642 518.014H710.354L710.423 513.981Z" fill="white"/>
<path d="M886.797 24.0585C897.338 30.9323 903.983 38.8831 891.896 53.1005C889.261 56.2167 892.652 64.7975 893.924 70.7319C895.069 76.0134 897.097 81.1 894.943 87.4354C893.362 82.8528 893.007 77.1246 889.959 74.0199C880.851 64.7173 881.47 57.58 889.18 46.9484C892.675 42.1711 887.828 31.4021 886.797 24.0585Z" fill="white"/>
<path d="M571.595 161.891L602.976 209.653L597.763 213.193L566.301 166.221L571.595 161.891Z" fill="white"/>
<path d="M383.133 95.0883H443.399V98.6627H383.408L383.133 95.0883Z" fill="white"/>
<path d="M162.339 408.662H216.543V412.179H162.305L162.339 408.662Z" fill="white"/>
<path d="M14.1384 686.755H67.5295V691.567H14.0123L14.1384 686.755Z" fill="white"/>
<path d="M135.792 360.213V391.729L113.175 378.555L135.792 360.213Z" fill="white"/>
<path d="M692.091 140.788V89.5434H696.25V141.097L692.091 140.788Z" fill="white"/>
<path d="M389.973 732.741L403.504 726.337L405.521 728.835C398.268 735.342 391.004 741.849 382.766 749.216L360.482 725.592L362.659 722.854C367.299 727.059 372.019 731.206 376.591 735.456C382.984 741.494 387.67 740.841 390.512 732.157L389.973 732.741Z" fill="white"/>
<path d="M341.279 333.909L315.145 352.434L317.013 353.946L349.322 314.101L352.404 316.106L340.649 334.527L341.279 333.909Z" fill="white"/>
<path d="M155.969 396.61H200.24L200.102 403.209L155.705 401.147L155.969 396.61Z" fill="white"/>
<path d="M659.656 554.823V507.519L662.577 507.393V554.72L659.656 554.823Z" fill="white"/>
<path d="M721.617 496.063H757.604L757.845 499.649H721.915C721.812 498.435 721.72 497.209 721.617 496.063Z" fill="white"/>
<path d="M79.6628 627.399V669.788L76.2256 669.88V627.548L79.6628 627.399Z" fill="white"/>
<path d="M508.362 11.2617C507.735 24.6657 507.101 38.0697 506.46 51.4737L501.957 51.2904V11.0325L508.362 11.2617Z" fill="white"/>
<path d="M401.568 107.919H444.945C444.945 109.065 444.945 110.28 444.945 111.46H401.407L401.568 107.919Z" fill="white"/>
<path d="M67.8045 100.095V141.143H64.9172V100.026L67.8045 100.095Z" fill="white"/>
<path d="M708.063 140.662L709.85 102.627L714.089 102.73V141.074L708.063 140.662Z" fill="white"/>
<path d="M213.61 672.24H245.691L228.23 690.65L213.61 672.24Z" fill="white"/>
<path d="M293.033 330.3L274.827 319.416C285.734 315.349 296.917 310.664 297.341 324.881L293.033 330.3Z" fill="white"/>
<path d="M288.896 572.42C291.337 575.307 296.172 580.44 295.863 580.749C287.659 589.582 278.917 597.934 270.267 606.354L266.314 602.482L289.309 571.95L288.896 572.42Z" fill="white"/>
<path d="M425.743 679.068C425.663 675.196 424.024 669.044 425.743 667.852C433.442 662.571 442.127 658.687 450.456 654.345L453.584 659.168L425.422 678.793L425.743 679.068Z" fill="white"/>
<path d="M11.274 466.62H48.9228L48.602 473.242L11.1251 470.332L11.274 466.62Z" fill="white"/>
<path d="M662.783 462.736L700.673 469.129C692.446 472.325 686.351 476.919 681.046 476.129C675.742 475.338 671.147 469.209 662.783 462.736Z" fill="white"/>
<path d="M451.419 341.63H422.157C422.157 340.347 422.157 339.064 422.157 337.781H451.419C451.419 339.11 451.419 340.347 451.419 341.63Z" fill="white"/>
<path d="M583.178 52.6995V16.039H586.993V53.0547L583.178 52.6995Z" fill="white"/>
<path d="M601.796 705.131L562.44 702.485L562.853 696.562L602.323 698.509L601.796 705.131Z" fill="white"/>
<path d="M8.99401 508.974L45.8293 511.14L45.646 515.447H8.78778L8.99401 508.974Z" fill="white"/>
<path d="M42.7473 654.734H14.104L14.0352 650.897H42.6785L42.7473 654.734Z" fill="white"/>
<path d="M559.415 15.6036L555.795 51.7143L549.791 51.1071C550.914 39.2306 552.033 27.3503 553.148 15.4662L559.415 15.6036Z" fill="white"/>
<path d="M540.843 15.0308V50.7634H537.188V15.1225L540.843 15.0308Z" fill="white"/>
<path d="M488.391 45.3331V13.4613H492.035V45.3216L488.391 45.3331Z" fill="white"/>
<path d="M887.278 133.822L898.839 146.425L896.547 149.059L882.214 137.477C882.558 126.021 904.808 122.229 888.172 108.126C908.692 116.993 895.722 125.264 887.278 133.822Z" fill="white"/>
<path d="M758.097 570.759L724.298 567.093C724.493 565.168 724.676 563.255 724.871 561.365L758.819 564.263L758.097 570.759Z" fill="white"/>
<path d="M390.512 732.18L366.027 717.71L369.304 712.796L383.053 723.106L401.178 713.391L389.996 732.741L390.512 732.18Z" fill="white"/>
<path d="M15.2726 860.16V894.746L12.8781 894.953V860.549L15.2726 860.16Z" fill="white"/>
<path d="M95.2677 136.24V65.7942H97.7081V136.331L95.2677 136.24Z" fill="white"/>
<path d="M11.801 497.392H46.7344L46.8604 500.554H12.1104L11.801 497.392Z" fill="white"/>
<path d="M696.743 452.987C687.726 441.462 678.411 440.087 668.615 452.322L666.118 446.457C671.514 443.077 676.933 436.982 682.284 437.04C688.368 437.04 694.394 442.653 700.444 445.827L696.743 452.987Z" fill="white"/>
<path d="M491.966 817.129L486.066 822.33C484.92 820.795 483.213 819.386 482.858 817.679C482.64 816.637 484.576 814.036 485.413 814.093C487.2 814.219 488.907 815.606 491.966 817.129Z" fill="white"/>
<path d="M202.027 496.235L186.583 518.678L173.98 529.355L169.236 528.267C170.096 512.595 168.09 495.8 173.43 481.88C175.251 477.171 195.897 479.749 210.299 478.844L202.027 496.235Z" fill="white"/>
<path d="M231.977 29.844L286.869 88.2717L231.977 29.844Z" fill="black"/>
<path d="M228.482 564.859C245.026 545.329 261.567 525.8 278.104 506.271C261.575 525.8 245.034 545.329 228.482 564.859Z" fill="black"/>
<path d="M510.16 690.902L532.376 716.37L530.474 721.09C522.947 720.357 511.363 722.236 508.808 718.295C504.225 711.26 505.176 700.698 503.813 691.613L510.16 690.902Z" fill="white"/>
<path d="M181.186 47.9222L253.596 125.07C227.554 125.07 205.682 125.333 183.833 124.738C181.209 124.669 176.546 120.155 176.477 117.52C175.893 94.9164 176.145 72.29 176.145 49.6636L181.186 47.9222ZM181.931 56.0104C181.931 76.632 181.851 92.3617 182 108.068C182 110.875 182.928 113.671 183.375 116.214C212.648 122.63 216.933 121.621 227.84 105.388L212.889 89.6007L189.561 108.641L184.979 103.44L208.271 85.2243L181.931 56.0104Z" fill="white"/>
<path d="M714.548 56.7895C713.07 51.3019 710.194 45.7684 710.377 40.3266C710.778 28.4578 719.291 21.2517 729.763 23.4169C735.961 24.7 743.775 33.7277 744.933 40.3381C746.834 51.2675 739.204 58.7485 727.3 58.9891C722.843 59.0693 718.34 57.1446 713.86 56.1365L714.548 56.7895ZM746.628 40.361C737.268 35.2056 731.814 29.718 727.346 30.4283C722.877 31.1386 719.176 37.9666 715.155 42.1138C719.6 45.6768 723.931 51.8747 728.503 52.0465C733.074 52.2184 737.852 46.3756 746.605 40.361H746.628Z" fill="white"/>
<path d="M500.765 227.891L486.616 240.493C483.178 236.506 477.003 232.416 477.152 228.567C477.324 224.305 483.293 220.273 486.742 216.137L500.765 227.891Z" fill="white"/>
<path d="M735.95 834.612C720.54 846.068 707.421 856.448 693.443 865.544C690.338 867.572 682.983 866.575 679.694 864.135C669.016 856.264 659.323 847.065 646.102 835.654C662.978 822.686 677.987 810.336 694.062 799.567C696.858 797.699 705.439 801.102 709.06 804.504C717.905 812.833 725.409 822.571 735.95 834.612ZM656.173 833.89C688.929 867.389 684.747 872.452 726.406 832.481C719.646 824.736 713.494 816.155 705.703 809.488C702.357 806.624 694.039 805.318 690.682 807.494C678.595 815.296 667.664 824.862 656.173 833.89Z" fill="white"/>
<path d="M738.642 371.245V410.014L713.127 395.04L738.642 371.245Z" fill="white"/>
<path d="M574.207 556.37C580.634 565.008 586.81 570.209 585.813 572.581C583.693 577.85 578.034 581.746 573.817 586.133C570.288 582.697 563.781 579.134 563.93 575.88C564.17 570.747 568.891 565.821 574.207 556.37Z" fill="white"/>
</g>
<defs>
<clipPath id="clip0_2_1432">
<rect width="913" height="905" fill="white"/>
</clipPath>
</defs>
</svg>
